<svg width="41" height="35" viewBox="0 0 41 35" fill="none" xmlns="http://www.w3.org/2000/svg">
<g id="Vector">
<mask id="path-1-outside-1" maskUnits="userSpaceOnUse" x="-0.5" y="-0.0767822" width="42" height="35" fill="black">
<rect fill="white" x="-0.5" y="-0.0767822" width="42" height="35"/>
<path d="M20.8396 24.7706C20.4878 24.7706 20.2026 25.0487 20.2026 25.3917V26.7163C20.2026 27.0593 20.4878 27.3373 20.8396 27.3373C21.1914 27.3373 21.4765 27.0593 21.4765 26.7163V25.3917C21.4765 25.0487 21.1914 24.7706 20.8396 24.7706Z"/>
<path d="M40.1144 15.8723C39.8658 15.6299 39.5354 15.4965 39.1838 15.4965C39.1838 15.4965 39.1837 15.4965 39.1838 15.4965L37.5484 15.4967C37.5277 15.4967 37.5135 15.474 37.5091 15.453C37.0597 13.3036 36.0518 11.2772 34.5943 9.59292C33.1855 7.96497 31.3813 6.68467 29.3693 5.88053C29.0448 4.54478 28.3595 3.16759 27.0082 2.13234C25.6999 1.13007 24.3823 0.937202 24.3269 0.929432C24.1444 0.904067 23.959 0.957083 23.8195 1.07507C23.6799 1.19306 23.5998 1.36415 23.5998 1.54422V4.89776H21.2883C20.717 2.98661 18.9055 1.58565 16.7634 1.58565C14.5758 1.58565 12.7319 3.0464 12.2027 5.01986C9.05336 5.43812 6.15586 6.92576 4.00586 9.23872C1.74508 11.6711 0.5 14.8198 0.5 18.1048C0.5 25.4783 4.42617 31.4779 5.62961 33.1409C6.00133 33.6547 6.61016 33.9615 7.2582 33.9615H9.96922C11.0697 33.9615 11.965 33.0886 11.965 32.0156V31.156C12.651 31.259 13.348 31.3118 14.0457 31.3118H20.2028V32.0156C20.2028 33.0886 21.0981 33.9615 22.1986 33.9615H25.1765C26.1113 33.9615 26.932 33.3146 27.1279 32.4234L27.4548 30.9362C31.641 29.9422 35.0069 27.0788 36.6635 23.3629H39.1837C39.9095 23.3629 40.5 22.7872 40.5 22.0795V16.78C40.5 16.437 40.3631 16.1148 40.1144 15.8723ZM16.7633 2.82779C18.6598 2.82779 20.2027 4.33218 20.2027 6.18133C20.2027 6.65421 20.0989 7.12 19.9033 7.54755H13.6232C13.4277 7.11984 13.3237 6.65421 13.3237 6.18133C13.3237 4.33211 14.8667 2.82779 16.7633 2.82779ZM39.2261 22.0793C39.2261 22.1022 39.2071 22.1208 39.1836 22.1208H37.1423C37.4893 21.0617 37.7028 19.9479 37.7639 18.7994C37.7822 18.4569 37.5121 18.1648 37.1608 18.147C36.8095 18.1297 36.5099 18.3925 36.4917 18.7351C36.2219 23.8075 32.6809 28.1384 27.7548 29.5707L28.6448 25.5217C28.7185 25.1864 28.4994 24.8562 28.1554 24.7844C27.8116 24.7123 27.4728 24.9262 27.3991 25.2615L25.8823 32.163C25.8114 32.4854 25.5145 32.7194 25.1765 32.7194H22.1984C21.8004 32.7194 21.4766 32.4036 21.4766 32.0156V29.3658C21.4766 29.0228 21.1914 28.7448 20.8396 28.7448C20.4878 28.7448 20.2027 29.0228 20.2027 29.3658V30.0697H14.0455C13.3467 30.0697 12.6491 30.0111 11.9648 29.8974V25.3914C11.9648 25.0484 11.6797 24.7704 11.3279 24.7704C10.9761 24.7704 10.6909 25.0484 10.6909 25.3914V32.0156C10.6909 32.4037 10.3671 32.7195 9.96906 32.7195H7.2582C7.02008 32.7195 6.80586 32.6121 6.67055 32.425C5.52187 30.8373 1.77391 25.1127 1.77391 18.1047C1.77391 15.1286 2.9018 12.2761 4.94977 10.0728C6.82398 8.0563 9.32469 6.73243 12.0519 6.29764C12.0629 6.72322 12.1345 7.14399 12.2629 7.5474H12.0074C11.6556 7.5474 11.3705 7.82542 11.3705 8.16843C11.3705 8.51143 11.6556 8.78945 12.0074 8.78945H21.5191C21.8709 8.78945 22.1561 8.51143 22.1561 8.16843C22.1561 7.82542 21.8709 7.5474 21.5191 7.5474H21.2636C21.4038 7.1072 21.4766 6.64644 21.4766 6.18118C21.4766 6.16724 21.4757 6.1536 21.4755 6.13974H23.5998V7.50596C23.5998 7.84896 23.8849 8.12699 24.2367 8.12699C24.5885 8.12699 24.8737 7.84896 24.8737 7.50596V2.35964C26.0822 2.80555 28.3556 4.17519 28.3556 8.1685C28.3556 8.5115 28.6408 8.78953 28.9926 8.78953C29.3444 8.78953 29.6295 8.5115 29.6295 8.1685C29.6295 7.9054 29.6198 7.6276 29.5974 7.34051C31.1339 8.07024 32.5123 9.11318 33.6207 10.394C34.941 11.9198 35.854 13.7549 36.2609 15.7011C36.3866 16.3025 36.9282 16.7389 37.5487 16.7388L39.1838 16.7387C39.188 16.7387 39.2013 16.7387 39.2138 16.7508C39.2262 16.7629 39.2262 16.7757 39.2262 16.78L39.2261 22.0793Z"/>
<path d="M33.6658 15.9007C33.2705 14.8666 32.224 14.1718 31.0621 14.1718C29.9001 14.1718 28.8538 14.8665 28.4583 15.9007C28.3354 16.2221 28.503 16.5797 28.8326 16.6995C29.1623 16.8195 29.5291 16.656 29.6519 16.3346C29.8625 15.7839 30.4292 15.4138 31.062 15.4138C31.6948 15.4138 32.2616 15.7839 32.4722 16.3346C32.5677 16.5845 32.8107 16.7388 33.0691 16.7388C33.143 16.7388 33.2182 16.7262 33.2915 16.6995C33.6211 16.5797 33.7887 16.222 33.6658 15.9007Z"/>
<path d="M17.4002 17.6314V14.4577C18.6497 14.6058 19.5233 15.1703 19.5233 15.683C19.5233 16.026 19.8085 16.304 20.1603 16.304C20.5121 16.304 20.7972 16.026 20.7972 15.683C20.7972 14.4133 19.3492 13.3926 17.4002 13.2081V13.1368C17.4002 12.7938 17.115 12.5157 16.7632 12.5157C16.4114 12.5157 16.1263 12.7938 16.1263 13.1368V13.2081C14.1772 13.3926 12.7292 14.4133 12.7292 15.683C12.7292 17.4964 14.5667 18.1509 16.1263 18.5785V21.7521C14.8767 21.604 14.0032 21.0396 14.0032 20.5269C14.0032 20.1839 13.718 19.9059 13.3662 19.9059C13.0144 19.9059 12.7292 20.1839 12.7292 20.5269C12.7292 21.7965 14.1772 22.8173 16.1263 23.0017V23.0731C16.1263 23.4161 16.4114 23.6941 16.7632 23.6941C17.115 23.6941 17.4002 23.4161 17.4002 23.0731V23.0017C19.3492 22.8173 20.7972 21.7965 20.7972 20.5269C20.7972 18.7134 18.9596 18.059 17.4002 17.6314ZM16.1263 17.2782C14.5575 16.7984 14.0032 16.3624 14.0032 15.683C14.0032 15.1703 14.8767 14.6058 16.1263 14.4577V17.2782ZM17.4002 21.7522V18.9317C18.9689 19.4114 19.5233 19.8475 19.5233 20.527C19.5233 21.0397 18.6496 21.6041 17.4002 21.7522Z"/>
</mask>
<path d="M20.8396 24.7706C20.4878 24.7706 20.2026 25.0487 20.2026 25.3917V26.7163C20.2026 27.0593 20.4878 27.3373 20.8396 27.3373C21.1914 27.3373 21.4765 27.0593 21.4765 26.7163V25.3917C21.4765 25.0487 21.1914 24.7706 20.8396 24.7706Z" fill="white"/>
<path d="M40.1144 15.8723C39.8658 15.6299 39.5354 15.4965 39.1838 15.4965C39.1838 15.4965 39.1837 15.4965 39.1838 15.4965L37.5484 15.4967C37.5277 15.4967 37.5135 15.474 37.5091 15.453C37.0597 13.3036 36.0518 11.2772 34.5943 9.59292C33.1855 7.96497 31.3813 6.68467 29.3693 5.88053C29.0448 4.54478 28.3595 3.16759 27.0082 2.13234C25.6999 1.13007 24.3823 0.937202 24.3269 0.929432C24.1444 0.904067 23.959 0.957083 23.8195 1.07507C23.6799 1.19306 23.5998 1.36415 23.5998 1.54422V4.89776H21.2883C20.717 2.98661 18.9055 1.58565 16.7634 1.58565C14.5758 1.58565 12.7319 3.0464 12.2027 5.01986C9.05336 5.43812 6.15586 6.92576 4.00586 9.23872C1.74508 11.6711 0.5 14.8198 0.5 18.1048C0.5 25.4783 4.42617 31.4779 5.62961 33.1409C6.00133 33.6547 6.61016 33.9615 7.2582 33.9615H9.96922C11.0697 33.9615 11.965 33.0886 11.965 32.0156V31.156C12.651 31.259 13.348 31.3118 14.0457 31.3118H20.2028V32.0156C20.2028 33.0886 21.0981 33.9615 22.1986 33.9615H25.1765C26.1113 33.9615 26.932 33.3146 27.1279 32.4234L27.4548 30.9362C31.641 29.9422 35.0069 27.0788 36.6635 23.3629H39.1837C39.9095 23.3629 40.5 22.7872 40.5 22.0795V16.78C40.5 16.437 40.3631 16.1148 40.1144 15.8723ZM16.7633 2.82779C18.6598 2.82779 20.2027 4.33218 20.2027 6.18133C20.2027 6.65421 20.0989 7.12 19.9033 7.54755H13.6232C13.4277 7.11984 13.3237 6.65421 13.3237 6.18133C13.3237 4.33211 14.8667 2.82779 16.7633 2.82779ZM39.2261 22.0793C39.2261 22.1022 39.2071 22.1208 39.1836 22.1208H37.1423C37.4893 21.0617 37.7028 19.9479 37.7639 18.7994C37.7822 18.4569 37.5121 18.1648 37.1608 18.147C36.8095 18.1297 36.5099 18.3925 36.4917 18.7351C36.2219 23.8075 32.6809 28.1384 27.7548 29.5707L28.6448 25.5217C28.7185 25.1864 28.4994 24.8562 28.1554 24.7844C27.8116 24.7123 27.4728 24.9262 27.3991 25.2615L25.8823 32.163C25.8114 32.4854 25.5145 32.7194 25.1765 32.7194H22.1984C21.8004 32.7194 21.4766 32.4036 21.4766 32.0156V29.3658C21.4766 29.0228 21.1914 28.7448 20.8396 28.7448C20.4878 28.7448 20.2027 29.0228 20.2027 29.3658V30.0697H14.0455C13.3467 30.0697 12.6491 30.0111 11.9648 29.8974V25.3914C11.9648 25.0484 11.6797 24.7704 11.3279 24.7704C10.9761 24.7704 10.6909 25.0484 10.6909 25.3914V32.0156C10.6909 32.4037 10.3671 32.7195 9.96906 32.7195H7.2582C7.02008 32.7195 6.80586 32.6121 6.67055 32.425C5.52187 30.8373 1.77391 25.1127 1.77391 18.1047C1.77391 15.1286 2.9018 12.2761 4.94977 10.0728C6.82398 8.0563 9.32469 6.73243 12.0519 6.29764C12.0629 6.72322 12.1345 7.14399 12.2629 7.5474H12.0074C11.6556 7.5474 11.3705 7.82542 11.3705 8.16843C11.3705 8.51143 11.6556 8.78945 12.0074 8.78945H21.5191C21.8709 8.78945 22.1561 8.51143 22.1561 8.16843C22.1561 7.82542 21.8709 7.5474 21.5191 7.5474H21.2636C21.4038 7.1072 21.4766 6.64644 21.4766 6.18118C21.4766 6.16724 21.4757 6.1536 21.4755 6.13974H23.5998V7.50596C23.5998 7.84896 23.8849 8.12699 24.2367 8.12699C24.5885 8.12699 24.8737 7.84896 24.8737 7.50596V2.35964C26.0822 2.80555 28.3556 4.17519 28.3556 8.1685C28.3556 8.5115 28.6408 8.78953 28.9926 8.78953C29.3444 8.78953 29.6295 8.5115 29.6295 8.1685C29.6295 7.9054 29.6198 7.6276 29.5974 7.34051C31.1339 8.07024 32.5123 9.11318 33.6207 10.394C34.941 11.9198 35.854 13.7549 36.2609 15.7011C36.3866 16.3025 36.9282 16.7389 37.5487 16.7388L39.1838 16.7387C39.188 16.7387 39.2013 16.7387 39.2138 16.7508C39.2262 16.7629 39.2262 16.7757 39.2262 16.78L39.2261 22.0793Z" fill="white"/>
<path d="M33.6658 15.9007C33.2705 14.8666 32.224 14.1718 31.0621 14.1718C29.9001 14.1718 28.8538 14.8665 28.4583 15.9007C28.3354 16.2221 28.503 16.5797 28.8326 16.6995C29.1623 16.8195 29.5291 16.656 29.6519 16.3346C29.8625 15.7839 30.4292 15.4138 31.062 15.4138C31.6948 15.4138 32.2616 15.7839 32.4722 16.3346C32.5677 16.5845 32.8107 16.7388 33.0691 16.7388C33.143 16.7388 33.2182 16.7262 33.2915 16.6995C33.6211 16.5797 33.7887 16.222 33.6658 15.9007Z" fill="white"/>
<path d="M17.4002 17.6314V14.4577C18.6497 14.6058 19.5233 15.1703 19.5233 15.683C19.5233 16.026 19.8085 16.304 20.1603 16.304C20.5121 16.304 20.7972 16.026 20.7972 15.683C20.7972 14.4133 19.3492 13.3926 17.4002 13.2081V13.1368C17.4002 12.7938 17.115 12.5157 16.7632 12.5157C16.4114 12.5157 16.1263 12.7938 16.1263 13.1368V13.2081C14.1772 13.3926 12.7292 14.4133 12.7292 15.683C12.7292 17.4964 14.5667 18.1509 16.1263 18.5785V21.7521C14.8767 21.604 14.0032 21.0396 14.0032 20.5269C14.0032 20.1839 13.718 19.9059 13.3662 19.9059C13.0144 19.9059 12.7292 20.1839 12.7292 20.5269C12.7292 21.7965 14.1772 22.8173 16.1263 23.0017V23.0731C16.1263 23.4161 16.4114 23.6941 16.7632 23.6941C17.115 23.6941 17.4002 23.4161 17.4002 23.0731V23.0017C19.3492 22.8173 20.7972 21.7965 20.7972 20.5269C20.7972 18.7134 18.9596 18.059 17.4002 17.6314ZM16.1263 17.2782C14.5575 16.7984 14.0032 16.3624 14.0032 15.683C14.0032 15.1703 14.8767 14.6058 16.1263 14.4577V17.2782ZM17.4002 21.7522V18.9317C18.9689 19.4114 19.5233 19.8475 19.5233 20.527C19.5233 21.0397 18.6496 21.6041 17.4002 21.7522Z" fill="white"/>
<path d="M40.1144 15.8723L40.0446 15.9439L40.0446 15.9439L40.1144 15.8723ZM37.5484 15.4967L37.5484 15.5967L37.5485 15.5967L37.5484 15.4967ZM37.5091 15.453L37.607 15.4326L37.607 15.4325L37.5091 15.453ZM34.5943 9.59292L34.6699 9.52748L34.6699 9.52748L34.5943 9.59292ZM29.3693 5.88053L29.2721 5.90414L29.2843 5.95425L29.3322 5.97338L29.3693 5.88053ZM27.0082 2.13234L27.069 2.05296L27.069 2.05296L27.0082 2.13234ZM24.3269 0.929432L24.3408 0.830402L24.3406 0.830384L24.3269 0.929432ZM23.8195 1.07507L23.884 1.15143L23.884 1.15143L23.8195 1.07507ZM23.5998 4.89776V4.99776H23.6998V4.89776H23.5998ZM21.2883 4.89776L21.1925 4.9264L21.2138 4.99776H21.2883V4.89776ZM12.2027 5.01986L12.2159 5.11899L12.282 5.11021L12.2993 5.04576L12.2027 5.01986ZM4.00586 9.23872L3.93262 9.17063L3.93261 9.17064L4.00586 9.23872ZM5.62961 33.1409L5.71063 33.0823L5.71062 33.0823L5.62961 33.1409ZM11.965 31.156L11.9798 31.0571L11.865 31.0399V31.156H11.965ZM20.2028 31.3118H20.3028V31.2118H20.2028V31.3118ZM27.1279 32.4234L27.0302 32.4019L27.0302 32.4019L27.1279 32.4234ZM27.4548 30.9362L27.4317 30.8389L27.3706 30.8534L27.3571 30.9147L27.4548 30.9362ZM36.6635 23.3629V23.2629H36.5986L36.5722 23.3222L36.6635 23.3629ZM19.9033 7.54755V7.64755H19.9675L19.9942 7.58915L19.9033 7.54755ZM13.6232 7.54755L13.5323 7.58913L13.559 7.64755H13.6232V7.54755ZM39.2261 22.0793L39.1261 22.0793V22.0793H39.2261ZM37.1423 22.1208L37.0473 22.0896L37.0044 22.2208H37.1423V22.1208ZM37.7639 18.7994L37.664 18.794L37.664 18.794L37.7639 18.7994ZM37.1608 18.147L37.1658 18.0471L37.1657 18.0471L37.1608 18.147ZM36.4917 18.7351L36.5916 18.7404L36.5916 18.7404L36.4917 18.7351ZM27.7548 29.5707L27.6572 29.5492L27.621 29.7137L27.7828 29.6667L27.7548 29.5707ZM28.6448 25.5217L28.5471 25.5003L28.5471 25.5003L28.6448 25.5217ZM28.1554 24.7844L28.1349 24.8823L28.135 24.8823L28.1554 24.7844ZM27.3991 25.2615L27.4968 25.283L27.4968 25.283L27.3991 25.2615ZM25.8823 32.163L25.9799 32.1845L25.9799 32.1845L25.8823 32.163ZM20.2027 30.0697V30.1697H20.3027V30.0697H20.2027ZM11.9648 29.8974H11.8648V29.9821L11.9484 29.996L11.9648 29.8974ZM6.67055 32.425L6.75159 32.3664L6.75157 32.3664L6.67055 32.425ZM4.94977 10.0728L5.02301 10.1409L5.02301 10.1409L4.94977 10.0728ZM12.0519 6.29764L12.1518 6.29506L12.1489 6.18092L12.0361 6.19889L12.0519 6.29764ZM12.2629 7.5474V7.6474H12.3997L12.3582 7.51706L12.2629 7.5474ZM21.2636 7.5474L21.1683 7.51704L21.1268 7.6474H21.2636V7.5474ZM21.4755 6.13974V6.03974H21.3744L21.3756 6.14085L21.4755 6.13974ZM23.5998 6.13974H23.6998V6.03974H23.5998V6.13974ZM24.8737 2.35964L24.9083 2.26582L24.7737 2.21615V2.35964H24.8737ZM29.5974 7.34051L29.6403 7.25018L29.4843 7.17609L29.4977 7.34827L29.5974 7.34051ZM33.6207 10.394L33.6963 10.3286L33.6963 10.3286L33.6207 10.394ZM36.2609 15.7011L36.3588 15.6807L36.3588 15.6807L36.2609 15.7011ZM37.5487 16.7388L37.5487 16.6388L37.5487 16.6388L37.5487 16.7388ZM39.1838 16.7387L39.1838 16.6387L39.1837 16.6387L39.1838 16.7387ZM39.2138 16.7508L39.2836 16.6792L39.2836 16.6792L39.2138 16.7508ZM39.2262 16.78L39.3262 16.78V16.78H39.2262ZM33.6658 15.9007L33.5724 15.9364L33.5724 15.9364L33.6658 15.9007ZM28.4583 15.9007L28.3649 15.865L28.3649 15.865L28.4583 15.9007ZM28.8326 16.6995L28.8668 16.6055L28.8667 16.6055L28.8326 16.6995ZM29.6519 16.3346L29.5585 16.2989L29.5585 16.2989L29.6519 16.3346ZM32.4722 16.3346L32.5656 16.2989L32.5656 16.2989L32.4722 16.3346ZM33.2915 16.6995L33.2573 16.6055L33.2573 16.6055L33.2915 16.6995ZM17.4002 17.6314H17.3002V17.7076L17.3737 17.7278L17.4002 17.6314ZM17.4002 14.4577L17.412 14.3584L17.3002 14.3452V14.4577H17.4002ZM17.4002 13.2081H17.3002V13.2991L17.3908 13.3077L17.4002 13.2081ZM16.1263 13.2081L16.1357 13.3077L16.2263 13.2991V13.2081H16.1263ZM16.1263 18.5785H16.2263V18.5022L16.1527 18.4821L16.1263 18.5785ZM16.1263 21.7521L16.1145 21.8514L16.2263 21.8647V21.7521H16.1263ZM16.1263 23.0017H16.2263V22.9107L16.1357 22.9022L16.1263 23.0017ZM17.4002 23.0017L17.3908 22.9022L17.3002 22.9107V23.0017H17.4002ZM20.7972 20.5269H20.8972H20.7972ZM16.1263 17.2782L16.097 17.3739L16.2263 17.4134V17.2782H16.1263ZM16.1263 14.4577H16.2263V14.3452L16.1145 14.3584L16.1263 14.4577ZM17.4002 21.7522H17.3002V21.8647L17.412 21.8515L17.4002 21.7522ZM17.4002 18.9317L17.4294 18.8361L17.3002 18.7965V18.9317H17.4002ZM20.8396 24.6706C20.435 24.6706 20.1026 24.9911 20.1026 25.3917H20.3026C20.3026 25.1063 20.5406 24.8706 20.8396 24.8706V24.6706ZM20.1026 25.3917V26.7163H20.3026V25.3917H20.1026ZM20.1026 26.7163C20.1026 27.1169 20.435 27.4373 20.8396 27.4373V27.2373C20.5406 27.2373 20.3026 27.0017 20.3026 26.7163H20.1026ZM20.8396 27.4373C21.2442 27.4373 21.5765 27.1169 21.5765 26.7163H21.3765C21.3765 27.0017 21.1386 27.2373 20.8396 27.2373V27.4373ZM21.5765 26.7163V25.3917H21.3765V26.7163H21.5765ZM21.5765 25.3917C21.5765 24.9911 21.2442 24.6706 20.8396 24.6706V24.8706C21.1386 24.8706 21.3765 25.1063 21.3765 25.3917H21.5765ZM40.1842 15.8007C39.9167 15.5399 39.5611 15.3965 39.1838 15.3965V15.5965C39.5097 15.5965 39.8149 15.72 40.0446 15.9439L40.1842 15.8007ZM39.1838 15.3965C39.1838 15.3965 39.1837 15.3965 39.1837 15.3965C39.1837 15.3965 39.1837 15.3965 39.1837 15.3965C39.1837 15.3965 39.1837 15.3965 39.1837 15.3965C39.1837 15.3965 39.1837 15.3965 39.1837 15.3965C39.1837 15.3965 39.1837 15.3965 39.1837 15.3965C39.1837 15.3965 39.1837 15.3965 39.1837 15.3965C39.1837 15.3965 39.1837 15.3965 39.1837 15.3965C39.1837 15.3965 39.1837 15.3965 39.1837 15.3965C39.1837 15.3965 39.1837 15.3965 39.1837 15.3965C39.1837 15.3965 39.1837 15.3965 39.1837 15.3965C39.1837 15.3965 39.1837 15.3965 39.1837 15.3965C39.1837 15.3965 39.1837 15.3965 39.1837 15.3965C39.1837 15.3965 39.1837 15.3965 39.1837 15.3965C39.1837 15.3965 39.1837 15.3965 39.1837 15.3965C39.1837 15.3965 39.1837 15.3965 39.1837 15.3965C39.1837 15.3965 39.1837 15.3965 39.1837 15.3965C39.1837 15.3965 39.1837 15.3965 39.1837 15.3965C39.1837 15.3965 39.1837 15.3965 39.1837 15.3965C39.1837 15.3965 39.1837 15.3965 39.1837 15.3965C39.1837 15.3965 39.1837 15.3965 39.1837 15.3965C39.1837 15.3965 39.1837 15.3965 39.1837 15.3965C39.1837 15.3965 39.1837 15.3965 39.1837 15.3965C39.1837 15.3965 39.1837 15.3965 39.1837 15.3965C39.1837 15.3965 39.1837 15.3965 39.1837 15.3965C39.1837 15.3965 39.1837 15.3965 39.1837 15.3965C39.1837 15.3965 39.1837 15.3965 39.1837 15.3965C39.1837 15.3965 39.1837 15.3965 39.1837 15.3965C39.1837 15.3965 39.1837 15.3965 39.1837 15.3965C39.1837 15.3965 39.1837 15.3965 39.1837 15.3965C39.1837 15.3965 39.1837 15.3965 39.1837 15.3965C39.1837 15.3965 39.1837 15.3965 39.1837 15.3965C39.1837 15.3965 39.1837 15.3965 39.1837 15.3965C39.1837 15.3965 39.1837 15.3965 39.1837 15.3965C39.1837 15.3965 39.1837 15.3965 39.1837 15.3965C39.1837 15.3965 39.1837 15.3965 39.1837 15.3965C39.1837 15.3965 39.1837 15.3965 39.1837 15.3965C39.1837 15.3965 39.1837 15.3965 39.1837 15.3965C39.1837 15.3965 39.1837 15.3965 39.1837 15.3965C39.1837 15.3965 39.1837 15.3965 39.1837 15.3965C39.1837 15.3965 39.1837 15.3965 39.1837 15.3965C39.1837 15.3965 39.1837 15.3965 39.1837 15.3965C39.1837 15.3965 39.1837 15.3965 39.1837 15.3965C39.1837 15.3965 39.1837 15.3965 39.1837 15.3965C39.1837 15.3965 39.1837 15.3965 39.1837 15.3965C39.1837 15.3965 39.1837 15.3965 39.1837 15.3965C39.1837 15.3965 39.1837 15.3965 39.1837 15.3965C39.1837 15.3965 39.1837 15.3965 39.1837 15.3965C39.1837 15.3965 39.1837 15.3965 39.1837 15.3965C39.1837 15.3965 39.1837 15.3965 39.1837 15.3965C39.1837 15.3965 39.1837 15.3965 39.1837 15.3965C39.1837 15.3965 39.1837 15.3965 39.1837 15.3965C39.1837 15.3965 39.1837 15.3965 39.1837 15.3965C39.1837 15.3965 39.1837 15.3965 39.1837 15.3965C39.1837 15.3965 39.1837 15.3965 39.1837 15.3965C39.1837 15.3965 39.1837 15.3965 39.1837 15.3965C39.1837 15.3965 39.1837 15.3965 39.1837 15.3965C39.1837 15.3965 39.1837 15.3965 39.1837 15.3965C39.1837 15.3965 39.1837 15.3965 39.1837 15.3965C39.1837 15.3965 39.1837 15.3965 39.1837 15.3965C39.1837 15.3965 39.1837 15.3965 39.1837 15.3965C39.1837 15.3965 39.1837 15.3965 39.1837 15.3965C39.1837 15.3965 39.1837 15.3965 39.1837 15.3965C39.1837 15.3965 39.1837 15.3965 39.1837 15.3965C39.1837 15.3965 39.1837 15.3965 39.1837 15.3965C39.1837 15.3965 39.1837 15.3965 39.1837 15.3965C39.1837 15.3965 39.1837 15.3965 39.1837 15.3965C39.1837 15.3965 39.1837 15.3965 39.1837 15.3965C39.1837 15.3965 39.1837 15.3965 39.1837 15.3965C39.1837 15.3965 39.1837 15.3965 39.1837 15.3965C39.1837 15.3965 39.1837 15.3965 39.1837 15.3965C39.1837 15.3965 39.1837 15.3965 39.1837 15.3965C39.1837 15.3965 39.1837 15.3965 39.1837 15.3965C39.1837 15.3965 39.1837 15.3965 39.1837 15.3965C39.1837 15.3965 39.1837 15.3965 39.1837 15.3965C39.1837 15.3965 39.1837 15.3965 39.1837 15.3965C39.1837 15.3965 39.1837 15.3965 39.1837 15.3965C39.1837 15.3965 39.1837 15.3965 39.1837 15.3965C39.1837 15.3965 39.1837 15.3965 39.1837 15.3965C39.1837 15.3965 39.1837 15.3965 39.1837 15.3965C39.1837 15.3965 39.1837 15.3965 39.1837 15.3965C39.1837 15.3965 39.1837 15.3965 39.1837 15.3965C39.1837 15.3965 39.1837 15.3965 39.1837 15.3965C39.1837 15.3965 39.1837 15.3965 39.1837 15.3965C39.1837 15.3965 39.1837 15.3965 39.1837 15.3965C39.1837 15.3965 39.1837 15.3965 39.1837 15.3965C39.1837 15.3965 39.1837 15.3965 39.1837 15.3965C39.1837 15.3965 39.1837 15.3965 39.1837 15.3965C39.1837 15.3965 39.1837 15.3965 39.1837 15.3965C39.1837 15.3965 39.1837 15.3965 39.1837 15.3965C39.1837 15.3965 39.1837 15.3965 39.1837 15.3965C39.1837 15.3965 39.1837 15.3965 39.1837 15.3965C39.1837 15.3965 39.1837 15.3965 39.1837 15.3965C39.1837 15.3965 39.1837 15.3965 39.1837 15.3965C39.1837 15.3965 39.1837 15.3965 39.1837 15.3965C39.1837 15.3965 39.1837 15.3965 39.1837 15.3965C39.1837 15.3965 39.1837 15.3965 39.1837 15.3965C39.1837 15.3965 39.1837 15.3965 39.1837 15.3965C39.1837 15.3965 39.1837 15.3965 39.1837 15.3965C39.1837 15.3965 39.1837 15.3965 39.1837 15.3965C39.1837 15.3965 39.1837 15.3965 39.1837 15.3965C39.1837 15.3965 39.1837 15.3965 39.1837 15.3965C39.1837 15.3965 39.1837 15.3965 39.1837 15.3965C39.1837 15.3965 39.1837 15.3965 39.1837 15.3965C39.1837 15.3965 39.1837 15.3965 39.1837 15.3965C39.1837 15.3965 39.1837 15.3965 39.1837 15.3965C39.1837 15.3965 39.1837 15.3965 39.1837 15.3965C39.1837 15.4965 39.1837 15.5965 39.1837 15.5965C39.1837 15.5965 39.1837 15.5965 39.1837 15.5965C39.1837 15.5965 39.1837 15.5965 39.1837 15.5965C39.1837 15.5965 39.1837 15.5965 39.1837 15.5965C39.1837 15.5965 39.1837 15.5965 39.1837 15.5965C39.1837 15.5965 39.1837 15.5965 39.1837 15.5965C39.1837 15.5965 39.1837 15.5965 39.1837 15.5965C39.1837 15.5965 39.1837 15.5965 39.1837 15.5965C39.1837 15.5965 39.1837 15.5965 39.1837 15.5965C39.1837 15.5965 39.1837 15.5965 39.1837 15.5965C39.1837 15.5965 39.1837 15.5965 39.1837 15.5965C39.1837 15.5965 39.1837 15.5965 39.1837 15.5965C39.1837 15.5965 39.1837 15.5965 39.1837 15.5965C39.1837 15.5965 39.1837 15.5965 39.1837 15.5965C39.1837 15.5965 39.1837 15.5965 39.1837 15.5965C39.1837 15.5965 39.1837 15.5965 39.1837 15.5965C39.1837 15.5965 39.1837 15.5965 39.1837 15.5965C39.1837 15.5965 39.1837 15.5965 39.1837 15.5965C39.1837 15.5965 39.1837 15.5965 39.1837 15.5965C39.1837 15.5965 39.1837 15.5965 39.1837 15.5965C39.1837 15.5965 39.1837 15.5965 39.1837 15.5965C39.1837 15.5965 39.1837 15.5965 39.1837 15.5965C39.1837 15.5965 39.1837 15.5965 39.1837 15.5965C39.1837 15.5965 39.1837 15.5965 39.1837 15.5965C39.1837 15.5965 39.1837 15.5965 39.1837 15.5965C39.1837 15.5965 39.1837 15.5965 39.1837 15.5965C39.1837 15.5965 39.1837 15.5965 39.1837 15.5965C39.1837 15.5965 39.1837 15.5965 39.1837 15.5965C39.1837 15.5965 39.1837 15.5965 39.1837 15.5965C39.1837 15.5965 39.1837 15.5965 39.1837 15.5965C39.1837 15.5965 39.1837 15.5965 39.1837 15.5965C39.1837 15.5965 39.1837 15.5965 39.1837 15.5965C39.1837 15.5965 39.1837 15.5965 39.1837 15.5965C39.1837 15.5965 39.1837 15.5965 39.1837 15.5965C39.1837 15.5965 39.1837 15.5965 39.1837 15.5965C39.1837 15.5965 39.1837 15.5965 39.1837 15.5965C39.1837 15.5965 39.1837 15.5965 39.1837 15.5965C39.1837 15.5965 39.1837 15.5965 39.1837 15.5965C39.1837 15.5965 39.1837 15.5965 39.1837 15.5965C39.1837 15.5965 39.1837 15.5965 39.1837 15.5965C39.1837 15.5965 39.1837 15.5965 39.1837 15.5965C39.1837 15.5965 39.1837 15.5965 39.1837 15.5965C39.1837 15.5965 39.1837 15.5965 39.1837 15.5965C39.1837 15.5965 39.1837 15.5965 39.1837 15.5965C39.1837 15.5965 39.1837 15.5965 39.1837 15.5965C39.1837 15.5965 39.1837 15.5965 39.1837 15.5965C39.1837 15.5965 39.1837 15.5965 39.1837 15.5965C39.1837 15.5965 39.1837 15.5965 39.1837 15.5965C39.1837 15.5965 39.1837 15.5965 39.1837 15.5965C39.1837 15.5965 39.1837 15.5965 39.1837 15.5965C39.1837 15.5965 39.1837 15.5965 39.1837 15.5965C39.1837 15.5965 39.1837 15.5965 39.1837 15.5965C39.1837 15.5965 39.1837 15.5965 39.1837 15.5965C39.1837 15.5965 39.1837 15.5965 39.1837 15.5965C39.1837 15.5965 39.1837 15.5965 39.1837 15.5965C39.1837 15.5965 39.1837 15.5965 39.1837 15.5965C39.1837 15.5965 39.1837 15.5965 39.1837 15.5965C39.1837 15.5965 39.1837 15.5965 39.1837 15.5965C39.1837 15.5965 39.1837 15.5965 39.1837 15.5965C39.1837 15.5965 39.1837 15.5965 39.1837 15.5965C39.1837 15.5965 39.1837 15.5965 39.1837 15.5965C39.1837 15.5965 39.1837 15.5965 39.1837 15.5965C39.1837 15.5965 39.1837 15.5965 39.1837 15.5965C39.1837 15.5965 39.1837 15.5965 39.1837 15.5965C39.1837 15.5965 39.1837 15.5965 39.1837 15.5965C39.1837 15.5965 39.1837 15.5965 39.1837 15.5965C39.1837 15.5965 39.1837 15.5965 39.1837 15.5965C39.1837 15.5965 39.1837 15.5965 39.1837 15.5965C39.1837 15.5965 39.1837 15.5965 39.1837 15.5965C39.1837 15.5965 39.1837 15.5965 39.1837 15.5965C39.1837 15.5965 39.1837 15.5965 39.1837 15.5965C39.1837 15.5965 39.1837 15.5965 39.1837 15.5965C39.1837 15.5965 39.1837 15.5965 39.1837 15.5965C39.1837 15.5965 39.1837 15.5965 39.1837 15.5965C39.1837 15.5965 39.1837 15.5965 39.1837 15.5965C39.1837 15.5965 39.1837 15.5965 39.1837 15.5965C39.1837 15.5965 39.1837 15.5965 39.1837 15.5965C39.1837 15.5965 39.1837 15.5965 39.1837 15.5965C39.1837 15.5965 39.1837 15.5965 39.1837 15.5965C39.1837 15.5965 39.1837 15.5965 39.1837 15.5965C39.1837 15.5965 39.1837 15.5965 39.1837 15.5965C39.1837 15.5965 39.1837 15.5965 39.1837 15.5965C39.1837 15.5965 39.1837 15.5965 39.1837 15.5965C39.1837 15.5965 39.1837 15.5965 39.1837 15.5965C39.1837 15.5965 39.1837 15.5965 39.1837 15.5965C39.1837 15.5965 39.1837 15.5965 39.1837 15.5965C39.1837 15.5965 39.1837 15.5965 39.1837 15.5965C39.1837 15.5965 39.1837 15.5965 39.1837 15.5965C39.1837 15.5965 39.1837 15.5965 39.1837 15.5965C39.1837 15.5965 39.1837 15.5965 39.1837 15.5965C39.1837 15.5965 39.1837 15.5965 39.1837 15.5965C39.1837 15.5965 39.1837 15.5965 39.1837 15.5965C39.1837 15.5965 39.1837 15.5965 39.1837 15.5965C39.1837 15.5965 39.1837 15.5965 39.1837 15.5965C39.1837 15.5965 39.1837 15.5965 39.1837 15.5965C39.1837 15.5965 39.1837 15.5965 39.1837 15.5965C39.1837 15.5965 39.1837 15.5965 39.1837 15.5965C39.1837 15.5965 39.1837 15.5965 39.1837 15.5965C39.1837 15.5965 39.1837 15.5965 39.1837 15.5965C39.1837 15.5965 39.1837 15.5965 39.1837 15.5965C39.1837 15.5965 39.1837 15.5965 39.1837 15.5965C39.1837 15.5965 39.1837 15.5965 39.1837 15.5965C39.1837 15.5965 39.1837 15.5965 39.1837 15.5965C39.1837 15.5965 39.1837 15.5965 39.1837 15.5965C39.1837 15.5965 39.1837 15.5965 39.1837 15.5965C39.1837 15.5965 39.1837 15.5965 39.1837 15.5965C39.1837 15.5965 39.1837 15.5965 39.1837 15.5965C39.1837 15.5965 39.1837 15.5965 39.1837 15.5965C39.1837 15.5965 39.1837 15.5965 39.1837 15.5965C39.1837 15.5965 39.1837 15.5965 39.1837 15.5965C39.1837 15.5965 39.1837 15.5965 39.1837 15.5965C39.1837 15.5965 39.1837 15.5965 39.1837 15.5965C39.1837 15.5965 39.1837 15.5965 39.1837 15.5965C39.1837 15.5965 39.1837 15.5965 39.1837 15.5965C39.1837 15.5965 39.1837 15.5965 39.1837 15.5965C39.1837 15.5965 39.1837 15.5965 39.1837 15.5965C39.1837 15.5965 39.1837 15.5965 39.1837 15.5965C39.1837 15.5965 39.1837 15.5965 39.1837 15.5965C39.1837 15.5965 39.1837 15.5965 39.1837 15.5965C39.1837 15.5965 39.1837 15.5965 39.1837 15.5965C39.1837 15.5965 39.1837 15.5965 39.1837 15.5965C39.1837 15.5965 39.1837 15.5965 39.1837 15.5965C39.1837 15.5965 39.1837 15.5965 39.1837 15.5965C39.1837 15.5965 39.1837 15.5965 39.1837 15.5965C39.1837 15.5965 39.1837 15.5965 39.1837 15.5965C39.1837 15.5965 39.1837 15.5965 39.1837 15.5965C39.1837 15.5965 39.1837 15.5965 39.1837 15.5965C39.1837 15.5965 39.1837 15.5965 39.1837 15.5965C39.1837 15.5965 39.1837 15.5965 39.1837 15.5965C39.1837 15.5965 39.1837 15.5965 39.1837 15.5965C39.1837 15.5965 39.1837 15.5965 39.1837 15.5965C39.1837 15.5965 39.1837 15.5965 39.1837 15.5965C39.1837 15.5965 39.1837 15.5965 39.1837 15.5965C39.1837 15.5965 39.1837 15.5965 39.1837 15.5965C39.1837 15.5965 39.1837 15.5965 39.1837 15.5965C39.1837 15.5965 39.1837 15.5965 39.1837 15.5965C39.1837 15.5965 39.1837 15.5965 39.1837 15.5965C39.1837 15.5965 39.1837 15.5965 39.1837 15.5965C39.1837 15.5965 39.1837 15.5965 39.1837 15.5965C39.1837 15.5965 39.1837 15.5965 39.1837 15.5965C39.1837 15.5965 39.1837 15.5965 39.1837 15.5965C39.1837 15.5965 39.1837 15.5965 39.1837 15.5965C39.1837 15.5965 39.1837 15.5965 39.1837 15.5965C39.1838 15.5965 39.1838 15.5965 39.1838 15.5965C39.1838 15.5965 39.1838 15.5965 39.1838 15.5965C39.1838 15.5965 39.1838 15.5965 39.1838 15.5965C39.1838 15.5965 39.1838 15.5965 39.1838 15.5965C39.1838 15.5965 39.1838 15.5965 39.1838 15.5965C39.1838 15.5965 39.1838 15.5965 39.1838 15.5965C39.1838 15.5965 39.1838 15.5965 39.1838 15.5965C39.1838 15.5965 39.1838 15.5965 39.1838 15.5965C39.1838 15.5965 39.1838 15.5965 39.1838 15.5965C39.1838 15.5965 39.1838 15.5965 39.1838 15.5965C39.1838 15.5965 39.1838 15.5965 39.1838 15.5965C39.1838 15.5965 39.1838 15.5965 39.1838 15.5965C39.1838 15.5965 39.1838 15.5965 39.1838 15.5965C39.1838 15.5965 39.1838 15.5965 39.1838 15.5965C39.1838 15.5965 39.1838 15.5965 39.1838 15.5965C39.1838 15.5965 39.1838 15.5965 39.1838 15.5965C39.1838 15.5965 39.1838 15.5965 39.1838 15.5965C39.1838 15.5965 39.1838 15.5965 39.1838 15.5965C39.1838 15.5965 39.1838 15.5965 39.1838 15.5965C39.1838 15.5965 39.1838 15.5965 39.1838 15.5965C39.1838 15.5965 39.1838 15.5965 39.1838 15.5965C39.1838 15.5965 39.1838 15.5965 39.1838 15.5965C39.1838 15.5965 39.1838 15.5965 39.1838 15.5965C39.1838 15.5965 39.1838 15.5965 39.1838 15.5965C39.1838 15.5965 39.1838 15.5965 39.1838 15.5965C39.1838 15.5965 39.1838 15.5965 39.1838 15.5965C39.1838 15.5965 39.1838 15.5965 39.1838 15.5965C39.1838 15.5965 39.1838 15.5965 39.1838 15.5965C39.1838 15.5965 39.1838 15.5965 39.1838 15.5965C39.1838 15.5965 39.1838 15.5965 39.1838 15.5965C39.1838 15.5965 39.1838 15.5965 39.1838 15.5965C39.1838 15.5965 39.1838 15.5965 39.1838 15.5965C39.1838 15.5965 39.1838 15.5965 39.1838 15.5965C39.1838 15.5965 39.1838 15.5965 39.1838 15.5965C39.1838 15.5965 39.1838 15.5965 39.1838 15.5965C39.1838 15.5965 39.1838 15.5965 39.1838 15.5965C39.1838 15.5965 39.1838 15.5965 39.1838 15.5965C39.1838 15.5965 39.1838 15.5965 39.1838 15.5965C39.1838 15.5965 39.1838 15.5965 39.1838 15.5965C39.1838 15.5965 39.1838 15.5965 39.1838 15.5965C39.1838 15.5965 39.1838 15.5965 39.1838 15.5965C39.1838 15.5965 39.1838 15.5965 39.1838 15.5965C39.1838 15.5965 39.1838 15.5965 39.1838 15.5965C39.1838 15.5965 39.1838 15.5965 39.1838 15.5965C39.1838 15.5965 39.1838 15.5965 39.1838 15.5965C39.1838 15.5965 39.1838 15.5965 39.1838 15.5965C39.1838 15.5965 39.1838 15.5965 39.1838 15.5965C39.1838 15.5965 39.1838 15.5965 39.1838 15.5965C39.1838 15.5965 39.1838 15.5965 39.1838 15.5965C39.1838 15.5965 39.1838 15.5965 39.1838 15.5965C39.1838 15.5965 39.1838 15.5965 39.1838 15.5965C39.1838 15.5965 39.1838 15.5965 39.1838 15.5965C39.1838 15.5965 39.1838 15.5965 39.1838 15.5965C39.1838 15.5965 39.1838 15.5965 39.1838 15.5965C39.1838 15.5965 39.1838 15.5965 39.1838 15.5965C39.1838 15.5965 39.1838 15.5965 39.1838 15.5965C39.1838 15.5965 39.1838 15.5965 39.1838 15.5965C39.1838 15.5965 39.1838 15.5965 39.1838 15.5965C39.1838 15.5965 39.1838 15.5965 39.1838 15.5965C39.1838 15.5965 39.1838 15.5965 39.1838 15.5965C39.1838 15.5965 39.1838 15.5965 39.1838 15.5965C39.1838 15.5965 39.1838 15.5965 39.1838 15.5965C39.1838 15.5965 39.1838 15.5965 39.1838 15.5965C39.1838 15.5965 39.1838 15.5965 39.1838 15.5965C39.1838 15.5965 39.1838 15.5965 39.1838 15.5965C39.1838 15.5965 39.1838 15.5965 39.1838 15.5965C39.1838 15.5965 39.1838 15.5965 39.1838 15.5965C39.1838 15.5965 39.1838 15.5965 39.1838 15.5965C39.1838 15.5965 39.1838 15.5965 39.1838 15.5965C39.1838 15.5965 39.1838 15.5965 39.1838 15.5965C39.1838 15.5965 39.1838 15.5965 39.1838 15.5965C39.1838 15.5965 39.1838 15.5965 39.1838 15.5965C39.1838 15.5965 39.1838 15.5965 39.1838 15.5965C39.1838 15.5965 39.1838 15.5965 39.1838 15.5965C39.1838 15.5965 39.1838 15.5965 39.1838 15.5965C39.1838 15.5965 39.1838 15.5965 39.1838 15.5965C39.1838 15.5965 39.1838 15.5965 39.1838 15.5965C39.1838 15.5965 39.1838 15.5965 39.1838 15.5965C39.1838 15.5965 39.1838 15.5965 39.1838 15.5965C39.1838 15.5965 39.1838 15.5965 39.1838 15.5965C39.1838 15.5965 39.1838 15.5965 39.1838 15.5965C39.1838 15.5965 39.1838 15.5965 39.1838 15.5965C39.1838 15.5965 39.1838 15.5965 39.1838 15.5965C39.1838 15.5965 39.1838 15.5965 39.1838 15.5965C39.1838 15.5965 39.1838 15.5965 39.1838 15.5965C39.1838 15.5965 39.1838 15.5965 39.1838 15.5965C39.1838 15.5965 39.1838 15.5965 39.1838 15.5965C39.1838 15.5965 39.1838 15.5965 39.1838 15.5965C39.1838 15.5965 39.1838 15.5965 39.1838 15.5965C39.1838 15.5965 39.1838 15.5965 39.1838 15.5965C39.1838 15.5965 39.1838 15.5965 39.1838 15.5965C39.1838 15.5965 39.1838 15.5965 39.1838 15.5965C39.1838 15.5965 39.1838 15.5965 39.1838 15.5965C39.1838 15.5965 39.1838 15.5965 39.1838 15.5965C39.1838 15.5965 39.1838 15.5965 39.1838 15.5965C39.1838 15.5965 39.1838 15.5965 39.1838 15.5965C39.1838 15.5965 39.1838 15.5965 39.1838 15.5965C39.1838 15.5965 39.1838 15.5965 39.1838 15.5965C39.1838 15.5965 39.1838 15.5965 39.1838 15.5965C39.1838 15.5965 39.1838 15.5965 39.1838 15.5965C39.1838 15.5965 39.1838 15.5965 39.1838 15.5965C39.1838 15.5965 39.1838 15.5965 39.1838 15.5965C39.1838 15.5965 39.1838 15.5965 39.1838 15.5965C39.1838 15.5965 39.1838 15.5965 39.1838 15.5965C39.1838 15.5965 39.1838 15.5965 39.1838 15.5965C39.1838 15.5965 39.1838 15.5965 39.1838 15.5965C39.1838 15.5965 39.1838 15.5965 39.1838 15.5965C39.1838 15.5965 39.1838 15.5965 39.1838 15.5965C39.1838 15.5965 39.1838 15.5965 39.1838 15.5965C39.1838 15.5965 39.1838 15.5965 39.1838 15.5965C39.1838 15.5965 39.1838 15.5965 39.1838 15.5965C39.1838 15.5965 39.1838 15.5965 39.1838 15.5965C39.1838 15.5965 39.1838 15.5965 39.1838 15.5965C39.1838 15.5965 39.1838 15.5965 39.1838 15.5965C39.1838 15.5965 39.1838 15.5965 39.1838 15.5965C39.1838 15.5965 39.1838 15.5965 39.1838 15.5965C39.1838 15.5965 39.1838 15.5965 39.1838 15.5965C39.1838 15.5965 39.1838 15.5965 39.1838 15.5965C39.1838 15.5965 39.1838 15.5965 39.1838 15.5965C39.1838 15.5965 39.1838 15.5965 39.1838 15.5965C39.1838 15.5965 39.1838 15.5965 39.1838 15.5965C39.1838 15.5965 39.1838 15.5965 39.1838 15.5965C39.1838 15.5965 39.1838 15.5965 39.1838 15.5965C39.1838 15.5965 39.1838 15.5965 39.1838 15.5965C39.1838 15.5965 39.1838 15.5965 39.1838 15.5965C39.1838 15.5965 39.1838 15.5965 39.1838 15.5965C39.1838 15.5965 39.1838 15.5965 39.1838 15.5965C39.1838 15.5965 39.1838 15.5965 39.1838 15.5965C39.1838 15.5965 39.1838 15.5965 39.1838 15.5965C39.1838 15.5965 39.1838 15.5965 39.1838 15.5965C39.1838 15.5965 39.1838 15.5965 39.1838 15.5965C39.1838 15.5965 39.1838 15.5965 39.1838 15.5965C39.1838 15.5965 39.1838 15.5965 39.1838 15.5965C39.1838 15.5965 39.1838 15.5965 39.1838 15.5965C39.1838 15.5965 39.1838 15.5965 39.1838 15.5965C39.1838 15.5965 39.1838 15.5965 39.1838 15.5965C39.1838 15.5965 39.1838 15.5965 39.1838 15.5965C39.1838 15.5965 39.1838 15.5965 39.1838 15.5965C39.1838 15.5965 39.1838 15.5965 39.1838 15.5965C39.1838 15.5965 39.1838 15.5965 39.1838 15.5965C39.1838 15.5965 39.1838 15.5965 39.1838 15.5965C39.1838 15.5965 39.1838 15.5965 39.1838 15.5965C39.1838 15.5965 39.1838 15.5965 39.1838 15.5965C39.1838 15.5965 39.1838 15.5965 39.1838 15.5965C39.1838 15.5965 39.1838 15.5965 39.1838 15.5965C39.1838 15.5965 39.1838 15.5965 39.1838 15.5965C39.1838 15.5965 39.1838 15.5965 39.1838 15.5965C39.1838 15.5965 39.1838 15.5965 39.1838 15.5965C39.1838 15.5965 39.1838 15.5965 39.1838 15.5965C39.1838 15.5965 39.1838 15.5965 39.1838 15.5965C39.1838 15.5965 39.1838 15.5965 39.1838 15.5965C39.1838 15.5965 39.1838 15.5965 39.1838 15.5965C39.1838 15.5965 39.1838 15.4965 39.1838 15.3965C39.1838 15.3965 39.1838 15.3965 39.1838 15.3965C39.1838 15.3965 39.1838 15.3965 39.1838 15.3965C39.1838 15.3965 39.1838 15.3965 39.1838 15.3965C39.1838 15.3965 39.1838 15.3965 39.1838 15.3965C39.1838 15.3965 39.1838 15.3965 39.1838 15.3965C39.1838 15.3965 39.1838 15.3965 39.1838 15.3965C39.1838 15.3965 39.1838 15.3965 39.1838 15.3965C39.1838 15.3965 39.1838 15.3965 39.1838 15.3965C39.1838 15.3965 39.1838 15.3965 39.1838 15.3965C39.1838 15.3965 39.1838 15.3965 39.1838 15.3965C39.1838 15.3965 39.1838 15.3965 39.1838 15.3965C39.1838 15.3965 39.1838 15.3965 39.1838 15.3965C39.1838 15.3965 39.1838 15.3965 39.1838 15.3965C39.1838 15.3965 39.1838 15.3965 39.1838 15.3965C39.1838 15.3965 39.1838 15.3965 39.1838 15.3965C39.1838 15.3965 39.1838 15.3965 39.1838 15.3965C39.1838 15.3965 39.1838 15.3965 39.1838 15.3965C39.1838 15.3965 39.1838 15.3965 39.1838 15.3965C39.1838 15.3965 39.1838 15.3965 39.1838 15.3965C39.1838 15.3965 39.1838 15.3965 39.1838 15.3965C39.1838 15.3965 39.1838 15.3965 39.1838 15.3965C39.1838 15.3965 39.1838 15.3965 39.1838 15.3965C39.1838 15.3965 39.1838 15.3965 39.1838 15.3965C39.1838 15.3965 39.1838 15.3965 39.1838 15.3965C39.1838 15.3965 39.1838 15.3965 39.1838 15.3965C39.1838 15.3965 39.1838 15.3965 39.1838 15.3965C39.1838 15.3965 39.1838 15.3965 39.1838 15.3965C39.1838 15.3965 39.1838 15.3965 39.1838 15.3965C39.1838 15.3965 39.1838 15.3965 39.1838 15.3965C39.1838 15.3965 39.1838 15.3965 39.1838 15.3965C39.1838 15.3965 39.1838 15.3965 39.1838 15.3965C39.1838 15.3965 39.1838 15.3965 39.1838 15.3965C39.1838 15.3965 39.1838 15.3965 39.1838 15.3965C39.1838 15.3965 39.1838 15.3965 39.1838 15.3965C39.1838 15.3965 39.1838 15.3965 39.1838 15.3965C39.1838 15.3965 39.1838 15.3965 39.1838 15.3965C39.1838 15.3965 39.1838 15.3965 39.1838 15.3965C39.1838 15.3965 39.1838 15.3965 39.1838 15.3965C39.1838 15.3965 39.1838 15.3965 39.1838 15.3965C39.1838 15.3965 39.1838 15.3965 39.1838 15.3965C39.1838 15.3965 39.1838 15.3965 39.1838 15.3965C39.1838 15.3965 39.1838 15.3965 39.1838 15.3965C39.1838 15.3965 39.1838 15.3965 39.1838 15.3965C39.1838 15.3965 39.1838 15.3965 39.1838 15.3965C39.1838 15.3965 39.1838 15.3965 39.1838 15.3965C39.1838 15.3965 39.1838 15.3965 39.1838 15.3965C39.1838 15.3965 39.1838 15.3965 39.1838 15.3965C39.1838 15.3965 39.1838 15.3965 39.1838 15.3965C39.1838 15.3965 39.1838 15.3965 39.1838 15.3965C39.1838 15.3965 39.1838 15.3965 39.1838 15.3965C39.1838 15.3965 39.1838 15.3965 39.1838 15.3965C39.1838 15.3965 39.1838 15.3965 39.1838 15.3965C39.1838 15.3965 39.1838 15.3965 39.1838 15.3965C39.1838 15.3965 39.1838 15.3965 39.1838 15.3965C39.1838 15.3965 39.1838 15.3965 39.1838 15.3965C39.1838 15.3965 39.1838 15.3965 39.1838 15.3965C39.1838 15.3965 39.1838 15.3965 39.1838 15.3965C39.1838 15.3965 39.1838 15.3965 39.1838 15.3965C39.1838 15.3965 39.1838 15.3965 39.1838 15.3965C39.1838 15.3965 39.1838 15.3965 39.1838 15.3965C39.1838 15.3965 39.1838 15.3965 39.1838 15.3965C39.1838 15.3965 39.1838 15.3965 39.1838 15.3965C39.1838 15.3965 39.1838 15.3965 39.1838 15.3965C39.1838 15.3965 39.1838 15.3965 39.1838 15.3965C39.1838 15.3965 39.1838 15.3965 39.1838 15.3965C39.1838 15.3965 39.1838 15.3965 39.1838 15.3965C39.1838 15.3965 39.1838 15.3965 39.1838 15.3965C39.1838 15.3965 39.1838 15.3965 39.1838 15.3965C39.1838 15.3965 39.1838 15.3965 39.1838 15.3965C39.1838 15.3965 39.1838 15.3965 39.1838 15.3965C39.1838 15.3965 39.1838 15.3965 39.1838 15.3965C39.1838 15.3965 39.1838 15.3965 39.1838 15.3965C39.1838 15.3965 39.1838 15.3965 39.1838 15.3965C39.1838 15.3965 39.1838 15.3965 39.1838 15.3965C39.1838 15.3965 39.1838 15.3965 39.1838 15.3965C39.1838 15.3965 39.1838 15.3965 39.1838 15.3965C39.1838 15.3965 39.1838 15.3965 39.1838 15.3965C39.1838 15.3965 39.1838 15.3965 39.1838 15.3965C39.1838 15.3965 39.1838 15.3965 39.1838 15.3965C39.1838 15.3965 39.1838 15.3965 39.1838 15.3965C39.1838 15.3965 39.1838 15.3965 39.1838 15.3965C39.1838 15.3965 39.1838 15.3965 39.1838 15.3965C39.1838 15.3965 39.1838 15.3965 39.1838 15.3965C39.1838 15.3965 39.1838 15.3965 39.1838 15.3965C39.1838 15.3965 39.1838 15.3965 39.1838 15.3965C39.1838 15.3965 39.1838 15.3965 39.1838 15.3965C39.1838 15.3965 39.1838 15.3965 39.1838 15.3965C39.1838 15.3965 39.1838 15.3965 39.1838 15.3965C39.1838 15.3965 39.1838 15.3965 39.1838 15.3965C39.1838 15.3965 39.1838 15.3965 39.1838 15.3965C39.1838 15.3965 39.1838 15.3965 39.1838 15.3965C39.1838 15.3965 39.1838 15.3965 39.1838 15.3965C39.1838 15.3965 39.1838 15.3965 39.1838 15.3965C39.1838 15.3965 39.1838 15.3965 39.1838 15.3965C39.1838 15.3965 39.1838 15.3965 39.1838 15.3965C39.1838 15.3965 39.1838 15.3965 39.1838 15.3965C39.1838 15.3965 39.1838 15.3965 39.1838 15.3965C39.1838 15.3965 39.1838 15.3965 39.1838 15.3965C39.1838 15.3965 39.1838 15.3965 39.1838 15.3965C39.1838 15.3965 39.1838 15.3965 39.1838 15.3965C39.1838 15.3965 39.1838 15.3965 39.1838 15.3965C39.1838 15.3965 39.1838 15.3965 39.1838 15.3965C39.1838 15.3965 39.1838 15.3965 39.1838 15.3965C39.1838 15.3965 39.1838 15.3965 39.1838 15.3965C39.1838 15.3965 39.1838 15.3965 39.1838 15.3965C39.1838 15.3965 39.1838 15.3965 39.1838 15.3965C39.1838 15.3965 39.1838 15.3965 39.1838 15.3965C39.1838 15.3965 39.1838 15.3965 39.1838 15.3965C39.1838 15.3965 39.1838 15.3965 39.1838 15.3965C39.1838 15.3965 39.1838 15.3965 39.1838 15.3965V15.5965C39.1838 15.5965 39.1838 15.5965 39.1838 15.5965C39.1838 15.5965 39.1838 15.5965 39.1838 15.5965C39.1838 15.5965 39.1838 15.5965 39.1838 15.5965C39.1838 15.5965 39.1838 15.5965 39.1838 15.5965C39.1838 15.5965 39.1838 15.5965 39.1838 15.5965C39.1838 15.5965 39.1838 15.5965 39.1838 15.5965C39.1838 15.5965 39.1838 15.5965 39.1838 15.5965C39.1838 15.5965 39.1838 15.5965 39.1838 15.5965C39.1838 15.5965 39.1838 15.5965 39.1838 15.5965C39.1838 15.5965 39.1838 15.5965 39.1838 15.5965C39.1838 15.5965 39.1838 15.5965 39.1838 15.5965C39.1838 15.5965 39.1838 15.5965 39.1838 15.5965C39.1838 15.5965 39.1838 15.5965 39.1838 15.5965C39.1838 15.5965 39.1838 15.5965 39.1838 15.5965C39.1838 15.5965 39.1838 15.5965 39.1838 15.5965C39.1838 15.5965 39.1838 15.5965 39.1838 15.5965C39.1838 15.5965 39.1838 15.5965 39.1838 15.5965C39.1838 15.5965 39.1838 15.5965 39.1838 15.5965C39.1838 15.5965 39.1838 15.5965 39.1838 15.5965C39.1838 15.5965 39.1838 15.5965 39.1838 15.5965C39.1838 15.5965 39.1838 15.5965 39.1838 15.5965C39.1838 15.5965 39.1838 15.5965 39.1838 15.5965C39.1838 15.5965 39.1838 15.5965 39.1838 15.5965C39.1838 15.5965 39.1838 15.5965 39.1838 15.5965C39.1838 15.5965 39.1838 15.5965 39.1838 15.5965C39.1838 15.5965 39.1838 15.5965 39.1838 15.5965C39.1838 15.5965 39.1838 15.5965 39.1838 15.5965C39.1838 15.5965 39.1838 15.5965 39.1838 15.5965C39.1838 15.5965 39.1838 15.5965 39.1838 15.5965C39.1838 15.5965 39.1838 15.5965 39.1838 15.5965C39.1838 15.5965 39.1838 15.5965 39.1838 15.5965C39.1838 15.5965 39.1838 15.5965 39.1838 15.5965C39.1838 15.5965 39.1838 15.5965 39.1838 15.5965C39.1838 15.5965 39.1838 15.5965 39.1838 15.5965C39.1838 15.5965 39.1838 15.5965 39.1838 15.5965C39.1838 15.5965 39.1838 15.5965 39.1838 15.5965C39.1838 15.5965 39.1838 15.5965 39.1838 15.5965C39.1838 15.5965 39.1838 15.5965 39.1838 15.5965C39.1838 15.5965 39.1838 15.5965 39.1838 15.5965C39.1838 15.5965 39.1838 15.5965 39.1838 15.5965C39.1838 15.5965 39.1838 15.5965 39.1838 15.5965C39.1838 15.5965 39.1838 15.5965 39.1838 15.5965C39.1838 15.5965 39.1838 15.5965 39.1838 15.5965C39.1838 15.5965 39.1838 15.5965 39.1838 15.5965C39.1838 15.5965 39.1838 15.5965 39.1838 15.5965C39.1838 15.5965 39.1838 15.5965 39.1838 15.5965C39.1838 15.5965 39.1838 15.5965 39.1838 15.5965C39.1838 15.5965 39.1838 15.5965 39.1838 15.5965C39.1838 15.5965 39.1838 15.5965 39.1838 15.5965C39.1838 15.5965 39.1838 15.5965 39.1838 15.5965C39.1838 15.5965 39.1838 15.5965 39.1838 15.5965C39.1838 15.5965 39.1838 15.5965 39.1838 15.5965C39.1838 15.5965 39.1838 15.5965 39.1838 15.5965C39.1838 15.5965 39.1838 15.5965 39.1838 15.5965C39.1838 15.5965 39.1838 15.5965 39.1838 15.5965C39.1838 15.5965 39.1838 15.5965 39.1838 15.5965C39.1838 15.5965 39.1838 15.5965 39.1838 15.5965C39.1838 15.5965 39.1838 15.5965 39.1838 15.5965C39.1838 15.5965 39.1838 15.5965 39.1838 15.5965C39.1838 15.5965 39.1838 15.5965 39.1838 15.5965C39.1838 15.5965 39.1838 15.5965 39.1838 15.5965C39.1838 15.5965 39.1838 15.5965 39.1838 15.5965C39.1838 15.5965 39.1838 15.5965 39.1838 15.5965C39.1838 15.5965 39.1838 15.5965 39.1838 15.5965C39.1838 15.5965 39.1838 15.5965 39.1838 15.5965C39.1838 15.5965 39.1838 15.5965 39.1838 15.5965C39.1838 15.5965 39.1838 15.5965 39.1838 15.5965C39.1838 15.5965 39.1838 15.5965 39.1838 15.5965C39.1838 15.5965 39.1838 15.5965 39.1838 15.5965C39.1838 15.5965 39.1838 15.5965 39.1838 15.5965C39.1838 15.5965 39.1838 15.5965 39.1838 15.5965C39.1838 15.5965 39.1838 15.5965 39.1838 15.5965C39.1838 15.5965 39.1838 15.5965 39.1838 15.5965C39.1838 15.5965 39.1838 15.5965 39.1838 15.5965C39.1838 15.5965 39.1838 15.5965 39.1838 15.5965C39.1838 15.5965 39.1838 15.5965 39.1838 15.5965C39.1838 15.5965 39.1838 15.5965 39.1838 15.5965C39.1838 15.5965 39.1838 15.5965 39.1838 15.5965C39.1838 15.5965 39.1838 15.5965 39.1838 15.5965C39.1838 15.5965 39.1838 15.5965 39.1838 15.5965C39.1838 15.5965 39.1838 15.5965 39.1838 15.5965C39.1838 15.5965 39.1838 15.5965 39.1838 15.5965C39.1838 15.5965 39.1838 15.5965 39.1838 15.5965C39.1838 15.5965 39.1838 15.5965 39.1838 15.5965C39.1838 15.5965 39.1838 15.5965 39.1838 15.5965C39.1838 15.5965 39.1838 15.5965 39.1838 15.5965C39.1838 15.5965 39.1838 15.5965 39.1838 15.5965C39.1838 15.5965 39.1838 15.5965 39.1838 15.5965C39.1838 15.5965 39.1838 15.5965 39.1838 15.5965C39.1838 15.5965 39.1838 15.5965 39.1838 15.5965C39.1838 15.5965 39.1838 15.5965 39.1838 15.5965C39.1838 15.5965 39.1838 15.5965 39.1838 15.5965C39.1838 15.5965 39.1838 15.5965 39.1838 15.5965C39.1838 15.5965 39.1838 15.5965 39.1838 15.5965C39.1838 15.5965 39.1838 15.5965 39.1838 15.5965C39.1838 15.5965 39.1838 15.5965 39.1838 15.5965C39.1838 15.5965 39.1838 15.5965 39.1838 15.5965C39.1838 15.5965 39.1838 15.5965 39.1838 15.5965C39.1838 15.5965 39.1838 15.5965 39.1838 15.5965C39.1838 15.5965 39.1838 15.5965 39.1838 15.5965C39.1838 15.5965 39.1838 15.5965 39.1838 15.5965C39.1838 15.5965 39.1838 15.5965 39.1838 15.5965C39.1838 15.5965 39.1838 15.5965 39.1838 15.5965C39.1838 15.5965 39.1838 15.5965 39.1838 15.5965C39.1838 15.5965 39.1838 15.5965 39.1838 15.5965C39.1838 15.5965 39.1838 15.5965 39.1838 15.5965C39.1838 15.5965 39.1838 15.5965 39.1838 15.5965C39.1838 15.5965 39.1838 15.5965 39.1838 15.5965C39.1838 15.5965 39.1838 15.5965 39.1838 15.5965C39.1838 15.5965 39.1838 15.5965 39.1838 15.5965C39.1838 15.4965 39.1838 15.3965 39.1838 15.3965C39.1838 15.3965 39.1838 15.3965 39.1838 15.3965C39.1838 15.3965 39.1838 15.3965 39.1838 15.3965C39.1838 15.3965 39.1838 15.3965 39.1838 15.3965C39.1838 15.3965 39.1838 15.3965 39.1838 15.3965C39.1838 15.3965 39.1838 15.3965 39.1838 15.3965C39.1838 15.3965 39.1838 15.3965 39.1838 15.3965C39.1838 15.3965 39.1838 15.3965 39.1838 15.3965C39.1838 15.3965 39.1838 15.3965 39.1838 15.3965C39.1838 15.3965 39.1838 15.3965 39.1838 15.3965C39.1838 15.3965 39.1838 15.3965 39.1838 15.3965C39.1838 15.3965 39.1838 15.3965 39.1838 15.3965C39.1838 15.3965 39.1838 15.3965 39.1838 15.3965C39.1838 15.3965 39.1838 15.3965 39.1838 15.3965C39.1838 15.3965 39.1838 15.3965 39.1838 15.3965C39.1838 15.3965 39.1838 15.3965 39.1838 15.3965C39.1838 15.3965 39.1838 15.3965 39.1838 15.3965C39.1838 15.3965 39.1838 15.3965 39.1838 15.3965C39.1838 15.3965 39.1838 15.3965 39.1838 15.3965C39.1838 15.3965 39.1838 15.3965 39.1838 15.3965C39.1838 15.3965 39.1838 15.3965 39.1838 15.3965C39.1838 15.3965 39.1838 15.3965 39.1838 15.3965C39.1838 15.3965 39.1838 15.3965 39.1838 15.3965C39.1838 15.3965 39.1838 15.3965 39.1838 15.3965C39.1838 15.3965 39.1838 15.3965 39.1838 15.3965C39.1838 15.3965 39.1838 15.3965 39.1838 15.3965C39.1838 15.3965 39.1838 15.3965 39.1838 15.3965C39.1838 15.3965 39.1838 15.3965 39.1838 15.3965C39.1838 15.3965 39.1838 15.3965 39.1838 15.3965C39.1838 15.3965 39.1838 15.3965 39.1838 15.3965C39.1838 15.3965 39.1838 15.3965 39.1838 15.3965C39.1838 15.3965 39.1838 15.3965 39.1838 15.3965C39.1838 15.3965 39.1838 15.3965 39.1838 15.3965C39.1838 15.3965 39.1838 15.3965 39.1838 15.3965C39.1838 15.3965 39.1838 15.3965 39.1838 15.3965C39.1838 15.3965 39.1838 15.3965 39.1838 15.3965C39.1838 15.3965 39.1838 15.3965 39.1838 15.3965C39.1838 15.3965 39.1838 15.3965 39.1838 15.3965C39.1838 15.3965 39.1838 15.3965 39.1838 15.3965C39.1838 15.3965 39.1838 15.3965 39.1838 15.3965C39.1838 15.3965 39.1838 15.3965 39.1838 15.3965C39.1838 15.3965 39.1838 15.3965 39.1838 15.3965C39.1838 15.3965 39.1838 15.3965 39.1838 15.3965C39.1838 15.3965 39.1838 15.3965 39.1838 15.3965C39.1838 15.3965 39.1838 15.3965 39.1838 15.3965C39.1838 15.3965 39.1838 15.3965 39.1838 15.3965C39.1838 15.3965 39.1838 15.3965 39.1838 15.3965C39.1838 15.3965 39.1838 15.3965 39.1838 15.3965C39.1838 15.3965 39.1838 15.3965 39.1838 15.3965C39.1838 15.3965 39.1838 15.3965 39.1838 15.3965C39.1838 15.3965 39.1838 15.3965 39.1838 15.3965C39.1838 15.3965 39.1838 15.3965 39.1838 15.3965C39.1838 15.3965 39.1838 15.3965 39.1838 15.3965C39.1838 15.3965 39.1838 15.3965 39.1838 15.3965C39.1838 15.3965 39.1838 15.3965 39.1838 15.3965C39.1838 15.3965 39.1838 15.3965 39.1838 15.3965C39.1838 15.3965 39.1838 15.3965 39.1838 15.3965C39.1838 15.3965 39.1838 15.3965 39.1838 15.3965C39.1838 15.3965 39.1838 15.3965 39.1838 15.3965C39.1838 15.3965 39.1838 15.3965 39.1838 15.3965C39.1838 15.3965 39.1838 15.3965 39.1838 15.3965C39.1838 15.3965 39.1838 15.3965 39.1838 15.3965C39.1838 15.3965 39.1838 15.3965 39.1838 15.3965C39.1838 15.3965 39.1838 15.3965 39.1838 15.3965C39.1838 15.3965 39.1838 15.3965 39.1838 15.3965C39.1838 15.3965 39.1838 15.3965 39.1838 15.3965C39.1838 15.3965 39.1838 15.3965 39.1838 15.3965C39.1838 15.3965 39.1838 15.3965 39.1838 15.3965C39.1838 15.3965 39.1838 15.3965 39.1838 15.3965C39.1838 15.3965 39.1838 15.3965 39.1838 15.3965C39.1838 15.3965 39.1838 15.3965 39.1838 15.3965C39.1838 15.3965 39.1838 15.3965 39.1838 15.3965C39.1838 15.3965 39.1838 15.3965 39.1838 15.3965C39.1838 15.3965 39.1838 15.3965 39.1838 15.3965C39.1838 15.3965 39.1838 15.3965 39.1838 15.3965C39.1838 15.3965 39.1838 15.3965 39.1838 15.3965C39.1838 15.3965 39.1838 15.3965 39.1838 15.3965C39.1838 15.3965 39.1838 15.3965 39.1838 15.3965C39.1838 15.3965 39.1838 15.3965 39.1838 15.3965C39.1838 15.3965 39.1838 15.3965 39.1838 15.3965C39.1838 15.3965 39.1838 15.3965 39.1838 15.3965C39.1838 15.3965 39.1838 15.3965 39.1838 15.3965C39.1838 15.3965 39.1838 15.3965 39.1838 15.3965C39.1838 15.3965 39.1838 15.3965 39.1838 15.3965C39.1838 15.3965 39.1838 15.3965 39.1838 15.3965C39.1838 15.3965 39.1838 15.3965 39.1838 15.3965C39.1838 15.3965 39.1838 15.3965 39.1838 15.3965C39.1838 15.3965 39.1838 15.3965 39.1838 15.3965C39.1838 15.3965 39.1838 15.3965 39.1838 15.3965C39.1838 15.3965 39.1838 15.3965 39.1838 15.3965C39.1838 15.3965 39.1838 15.3965 39.1838 15.3965C39.1838 15.3965 39.1838 15.3965 39.1838 15.3965C39.1838 15.3965 39.1838 15.3965 39.1838 15.3965C39.1838 15.3965 39.1838 15.3965 39.1838 15.3965C39.1838 15.3965 39.1838 15.3965 39.1838 15.3965C39.1838 15.3965 39.1838 15.3965 39.1838 15.3965C39.1838 15.3965 39.1838 15.3965 39.1838 15.3965C39.1838 15.3965 39.1838 15.3965 39.1838 15.3965C39.1838 15.3965 39.1838 15.3965 39.1838 15.3965C39.1838 15.3965 39.1838 15.3965 39.1838 15.3965C39.1838 15.3965 39.1838 15.3965 39.1838 15.3965C39.1838 15.3965 39.1838 15.3965 39.1838 15.3965C39.1838 15.3965 39.1838 15.3965 39.1838 15.3965C39.1838 15.3965 39.1838 15.3965 39.1838 15.3965C39.1838 15.3965 39.1838 15.3965 39.1838 15.3965C39.1838 15.3965 39.1838 15.3965 39.1838 15.3965C39.1838 15.3965 39.1838 15.3965 39.1838 15.3965C39.1838 15.3965 39.1838 15.3965 39.1838 15.3965C39.1838 15.3965 39.1838 15.3965 39.1838 15.3965C39.1838 15.3965 39.1838 15.3965 39.1838 15.3965C39.1838 15.3965 39.1838 15.3965 39.1838 15.3965C39.1838 15.3965 39.1838 15.3965 39.1838 15.3965C39.1838 15.3965 39.1838 15.3965 39.1838 15.3965C39.1838 15.3965 39.1838 15.3965 39.1838 15.3965C39.1838 15.3965 39.1838 15.3965 39.1838 15.3965C39.1838 15.3965 39.1838 15.3965 39.1838 15.3965C39.1838 15.3965 39.1838 15.3965 39.1838 15.3965C39.1838 15.3965 39.1838 15.3965 39.1838 15.3965C39.1838 15.3965 39.1838 15.3965 39.1838 15.3965C39.1838 15.3965 39.1838 15.3965 39.1838 15.3965C39.1838 15.3965 39.1838 15.3965 39.1838 15.3965C39.1838 15.3965 39.1838 15.3965 39.1838 15.3965C39.1838 15.3965 39.1838 15.3965 39.1838 15.3965C39.1838 15.3965 39.1838 15.3965 39.1838 15.3965C39.1838 15.3965 39.1838 15.3965 39.1838 15.3965C39.1838 15.3965 39.1838 15.3965 39.1838 15.3965C39.1838 15.3965 39.1838 15.3965 39.1838 15.3965C39.1838 15.3965 39.1838 15.3965 39.1838 15.3965C39.1838 15.3965 39.1838 15.3965 39.1838 15.3965C39.1838 15.3965 39.1838 15.3965 39.1838 15.3965C39.1838 15.3965 39.1838 15.3965 39.1838 15.3965C39.1838 15.3965 39.1838 15.3965 39.1838 15.3965C39.1838 15.3965 39.1838 15.3965 39.1838 15.3965C39.1838 15.3965 39.1838 15.3965 39.1838 15.3965C39.1838 15.3965 39.1838 15.3965 39.1838 15.3965C39.1838 15.3965 39.1838 15.3965 39.1838 15.3965C39.1838 15.3965 39.1838 15.3965 39.1838 15.3965C39.1838 15.3965 39.1838 15.3965 39.1838 15.3965C39.1838 15.3965 39.1838 15.3965 39.1838 15.3965C39.1838 15.3965 39.1838 15.3965 39.1838 15.3965C39.1838 15.3965 39.1838 15.3965 39.1838 15.3965C39.1838 15.3965 39.1838 15.3965 39.1838 15.3965C39.1838 15.3965 39.1838 15.3965 39.1838 15.3965C39.1838 15.3965 39.1838 15.3965 39.1838 15.3965C39.1838 15.3965 39.1838 15.3965 39.1838 15.3965C39.1838 15.3965 39.1838 15.3965 39.1838 15.3965C39.1838 15.3965 39.1838 15.3965 39.1838 15.3965C39.1838 15.3965 39.1838 15.3965 39.1838 15.3965C39.1838 15.3965 39.1838 15.3965 39.1838 15.3965C39.1838 15.3965 39.1838 15.3965 39.1838 15.3965C39.1838 15.3965 39.1838 15.3965 39.1838 15.3965C39.1838 15.3965 39.1838 15.3965 39.1838 15.3965C39.1838 15.3965 39.1838 15.3965 39.1837 15.3965C39.1837 15.3965 39.1837 15.3965 39.1837 15.3965C39.1837 15.3965 39.1837 15.3965 39.1837 15.3965C39.1837 15.3965 39.1837 15.3965 39.1837 15.3965C39.1837 15.3965 39.1837 15.3965 39.1837 15.3965C39.1837 15.3965 39.1837 15.3965 39.1837 15.3965C39.1837 15.3965 39.1837 15.3965 39.1837 15.3965C39.1837 15.3965 39.1837 15.3965 39.1837 15.3965C39.1837 15.3965 39.1837 15.3965 39.1837 15.3965C39.1837 15.3965 39.1837 15.3965 39.1837 15.3965C39.1837 15.3965 39.1837 15.3965 39.1837 15.3965C39.1837 15.3965 39.1837 15.3965 39.1837 15.3965C39.1837 15.3965 39.1837 15.3965 39.1837 15.3965C39.1837 15.3965 39.1837 15.3965 39.1837 15.3965C39.1837 15.3965 39.1837 15.3965 39.1837 15.3965C39.1837 15.3965 39.1837 15.3965 39.1837 15.3965C39.1837 15.3965 39.1837 15.3965 39.1837 15.3965C39.1837 15.3965 39.1837 15.3965 39.1837 15.3965C39.1837 15.3965 39.1837 15.3965 39.1837 15.3965C39.1837 15.3965 39.1837 15.3965 39.1837 15.3965C39.1837 15.3965 39.1837 15.3965 39.1837 15.3965C39.1837 15.3965 39.1837 15.3965 39.1837 15.3965C39.1837 15.3965 39.1837 15.3965 39.1837 15.3965C39.1837 15.3965 39.1837 15.3965 39.1837 15.3965C39.1837 15.3965 39.1837 15.3965 39.1837 15.3965C39.1837 15.3965 39.1837 15.3965 39.1837 15.3965C39.1837 15.3965 39.1837 15.3965 39.1837 15.3965C39.1837 15.3965 39.1837 15.3965 39.1837 15.3965C39.1837 15.3965 39.1837 15.3965 39.1837 15.3965C39.1837 15.3965 39.1837 15.3965 39.1837 15.3965C39.1837 15.3965 39.1837 15.3965 39.1837 15.3965C39.1837 15.3965 39.1837 15.3965 39.1837 15.3965C39.1837 15.3965 39.1837 15.3965 39.1837 15.3965C39.1837 15.3965 39.1837 15.3965 39.1837 15.3965C39.1837 15.3965 39.1837 15.3965 39.1837 15.3965C39.1837 15.3965 39.1837 15.3965 39.1837 15.3965C39.1837 15.3965 39.1837 15.3965 39.1837 15.3965C39.1837 15.3965 39.1837 15.3965 39.1837 15.3965C39.1837 15.3965 39.1837 15.3965 39.1837 15.3965C39.1837 15.3965 39.1837 15.3965 39.1837 15.3965C39.1837 15.3965 39.1837 15.3965 39.1837 15.3965C39.1837 15.3965 39.1837 15.3965 39.1837 15.3965C39.1837 15.3965 39.1837 15.3965 39.1837 15.3965C39.1837 15.3965 39.1837 15.3965 39.1837 15.3965C39.1837 15.3965 39.1837 15.3965 39.1837 15.3965C39.1837 15.3965 39.1837 15.3965 39.1837 15.3965C39.1837 15.3965 39.1837 15.3965 39.1837 15.3965C39.1837 15.3965 39.1837 15.3965 39.1837 15.3965C39.1837 15.3965 39.1837 15.3965 39.1837 15.3965C39.1837 15.3965 39.1837 15.3965 39.1837 15.3965C39.1837 15.3965 39.1837 15.3965 39.1837 15.3965C39.1837 15.3965 39.1837 15.3965 39.1837 15.3965C39.1837 15.3965 39.1837 15.3965 39.1837 15.3965C39.1837 15.3965 39.1837 15.3965 39.1837 15.3965C39.1837 15.3965 39.1837 15.3965 39.1837 15.3965C39.1837 15.3965 39.1837 15.3965 39.1837 15.3965C39.1837 15.3965 39.1837 15.3965 39.1837 15.3965C39.1837 15.3965 39.1837 15.3965 39.1837 15.3965C39.1837 15.3965 39.1837 15.3965 39.1837 15.3965C39.1837 15.3965 39.1837 15.3965 39.1837 15.3965C39.1837 15.3965 39.1837 15.3965 39.1837 15.3965C39.1837 15.3965 39.1837 15.3965 39.1837 15.3965C39.1837 15.3965 39.1837 15.3965 39.1837 15.3965C39.1837 15.3965 39.1837 15.3965 39.1837 15.3965C39.1837 15.3965 39.1837 15.3965 39.1837 15.3965C39.1837 15.3965 39.1837 15.3965 39.1837 15.3965C39.1837 15.3965 39.1837 15.3965 39.1837 15.3965C39.1837 15.3965 39.1837 15.3965 39.1837 15.3965C39.1837 15.3965 39.1837 15.3965 39.1837 15.3965C39.1837 15.3965 39.1837 15.3965 39.1837 15.3965C39.1837 15.3965 39.1837 15.3965 39.1837 15.3965C39.1837 15.3965 39.1837 15.3965 39.1837 15.3965C39.1837 15.3965 39.1837 15.3965 39.1837 15.3965C39.1837 15.3965 39.1837 15.3965 39.1837 15.3965C39.1837 15.3965 39.1837 15.3965 39.1837 15.3965C39.1837 15.3965 39.1837 15.3965 39.1837 15.3965C39.1837 15.3965 39.1837 15.3965 39.1837 15.3965C39.1837 15.3965 39.1837 15.3965 39.1837 15.3965C39.1837 15.3965 39.1837 15.3965 39.1837 15.3965C39.1837 15.3965 39.1837 15.3965 39.1837 15.3965C39.1837 15.3965 39.1837 15.3965 39.1837 15.3965C39.1837 15.3965 39.1837 15.3965 39.1837 15.3965C39.1837 15.3965 39.1837 15.3965 39.1837 15.3965C39.1837 15.3965 39.1837 15.3965 39.1837 15.3965C39.1837 15.3965 39.1837 15.3965 39.1837 15.3965C39.1837 15.3965 39.1837 15.3965 39.1837 15.3965C39.1837 15.3965 39.1837 15.3965 39.1837 15.3965C39.1837 15.3965 39.1837 15.3965 39.1837 15.3965C39.1837 15.3965 39.1837 15.3965 39.1837 15.3965C39.1837 15.3965 39.1837 15.3965 39.1837 15.3965C39.1837 15.3965 39.1837 15.3965 39.1837 15.3965C39.1837 15.3965 39.1837 15.3965 39.1837 15.3965C39.1837 15.3965 39.1837 15.3965 39.1837 15.3965C39.1837 15.3965 39.1837 15.3965 39.1837 15.3965C39.1837 15.3965 39.1837 15.3965 39.1837 15.3965C39.1837 15.3965 39.1837 15.3965 39.1837 15.3965C39.1837 15.3965 39.1837 15.3965 39.1837 15.3965C39.1837 15.3965 39.1837 15.3965 39.1837 15.3965C39.1837 15.3965 39.1837 15.3965 39.1837 15.3965C39.1837 15.3965 39.1837 15.3965 39.1837 15.3965C39.1837 15.3965 39.1837 15.3965 39.1837 15.3965C39.1837 15.3965 39.1837 15.3965 39.1837 15.3965C39.1837 15.3965 39.1837 15.3965 39.1837 15.3965C39.1837 15.3965 39.1837 15.3965 39.1837 15.3965C39.1837 15.3965 39.1837 15.3965 39.1837 15.3965C39.1837 15.3965 39.1837 15.3965 39.1837 15.3965C39.1837 15.3965 39.1837 15.3965 39.1837 15.3965C39.1837 15.3965 39.1837 15.3965 39.1837 15.3965C39.1837 15.3965 39.1837 15.3965 39.1837 15.3965C39.1837 15.3965 39.1837 15.3965 39.1837 15.3965C39.1837 15.3965 39.1837 15.3965 39.1837 15.3965C39.1837 15.3965 39.1837 15.3965 39.1837 15.3965C39.1837 15.3965 39.1837 15.3965 39.1837 15.3965C39.1837 15.3965 39.1837 15.3965 39.1837 15.3965C39.1837 15.3965 39.1837 15.3965 39.1837 15.3965C39.1837 15.3965 39.1837 15.3965 39.1837 15.3965C39.1837 15.3965 39.1837 15.3965 39.1837 15.3965C39.1837 15.3965 39.1837 15.3965 39.1837 15.3965C39.1837 15.3965 39.1837 15.3965 39.1837 15.3965C39.1837 15.3965 39.1837 15.3965 39.1837 15.3965C39.1837 15.3965 39.1837 15.3965 39.1837 15.3965C39.1837 15.3965 39.1837 15.3965 39.1837 15.3965C39.1837 15.3965 39.1837 15.3965 39.1837 15.3965C39.1837 15.3965 39.1837 15.3965 39.1837 15.3965C39.1837 15.3965 39.1837 15.3965 39.1837 15.3965C39.1837 15.3965 39.1837 15.3965 39.1837 15.3965C39.1837 15.3965 39.1837 15.3965 39.1837 15.3965C39.1837 15.3965 39.1837 15.3965 39.1837 15.3965C39.1837 15.3965 39.1837 15.3965 39.1837 15.3965C39.1837 15.3965 39.1837 15.3965 39.1837 15.3965C39.1837 15.3965 39.1837 15.3965 39.1837 15.3965C39.1837 15.3965 39.1837 15.3965 39.1837 15.3965C39.1837 15.3965 39.1837 15.3965 39.1837 15.3965C39.1837 15.3965 39.1837 15.3965 39.1837 15.3965C39.1837 15.3965 39.1837 15.3965 39.1837 15.3965C39.1837 15.3965 39.1837 15.3965 39.1837 15.3965C39.1837 15.3965 39.1837 15.3965 39.1837 15.3965C39.1837 15.3965 39.1837 15.3965 39.1837 15.3965C39.1837 15.3965 39.1837 15.3965 39.1837 15.3965C39.1837 15.3965 39.1837 15.3965 39.1837 15.3965C39.1837 15.3965 39.1837 15.3965 39.1837 15.3965C39.1837 15.3965 39.1837 15.3965 39.1837 15.3965C39.1837 15.3965 39.1837 15.3965 39.1837 15.3965C39.1837 15.3965 39.1837 15.4965 39.1837 15.5965C39.1837 15.5965 39.1837 15.5965 39.1837 15.5965C39.1837 15.5965 39.1837 15.5965 39.1837 15.5965C39.1837 15.5965 39.1837 15.5965 39.1837 15.5965C39.1837 15.5965 39.1837 15.5965 39.1837 15.5965C39.1837 15.5965 39.1837 15.5965 39.1837 15.5965C39.1837 15.5965 39.1837 15.5965 39.1837 15.5965C39.1837 15.5965 39.1837 15.5965 39.1837 15.5965C39.1837 15.5965 39.1837 15.5965 39.1837 15.5965C39.1837 15.5965 39.1837 15.5965 39.1837 15.5965C39.1837 15.5965 39.1837 15.5965 39.1837 15.5965C39.1837 15.5965 39.1837 15.5965 39.1837 15.5965C39.1837 15.5965 39.1837 15.5965 39.1837 15.5965C39.1837 15.5965 39.1837 15.5965 39.1837 15.5965C39.1837 15.5965 39.1837 15.5965 39.1837 15.5965C39.1837 15.5965 39.1837 15.5965 39.1837 15.5965C39.1837 15.5965 39.1837 15.5965 39.1837 15.5965C39.1837 15.5965 39.1837 15.5965 39.1837 15.5965C39.1837 15.5965 39.1837 15.5965 39.1837 15.5965C39.1837 15.5965 39.1837 15.5965 39.1837 15.5965C39.1837 15.5965 39.1837 15.5965 39.1837 15.5965C39.1837 15.5965 39.1837 15.5965 39.1837 15.5965C39.1837 15.5965 39.1837 15.5965 39.1837 15.5965C39.1837 15.5965 39.1837 15.5965 39.1837 15.5965C39.1837 15.5965 39.1837 15.5965 39.1837 15.5965C39.1837 15.5965 39.1837 15.5965 39.1837 15.5965C39.1837 15.5965 39.1837 15.5965 39.1837 15.5965C39.1837 15.5965 39.1837 15.5965 39.1837 15.5965C39.1837 15.5965 39.1837 15.5965 39.1837 15.5965C39.1837 15.5965 39.1837 15.5965 39.1837 15.5965C39.1837 15.5965 39.1837 15.5965 39.1837 15.5965C39.1837 15.5965 39.1837 15.5965 39.1837 15.5965C39.1837 15.5965 39.1837 15.5965 39.1837 15.5965C39.1837 15.5965 39.1837 15.5965 39.1837 15.5965C39.1837 15.5965 39.1837 15.5965 39.1837 15.5965C39.1837 15.5965 39.1837 15.5965 39.1837 15.5965C39.1837 15.5965 39.1837 15.5965 39.1837 15.5965C39.1837 15.5965 39.1837 15.5965 39.1837 15.5965C39.1837 15.5965 39.1837 15.5965 39.1837 15.5965C39.1837 15.5965 39.1837 15.5965 39.1837 15.5965C39.1837 15.5965 39.1837 15.5965 39.1837 15.5965C39.1837 15.5965 39.1837 15.5965 39.1837 15.5965C39.1837 15.5965 39.1837 15.5965 39.1837 15.5965C39.1837 15.5965 39.1837 15.5965 39.1837 15.5965C39.1837 15.5965 39.1837 15.5965 39.1837 15.5965C39.1837 15.5965 39.1837 15.5965 39.1837 15.5965C39.1837 15.5965 39.1837 15.5965 39.1837 15.5965C39.1837 15.5965 39.1837 15.5965 39.1837 15.5965C39.1837 15.5965 39.1837 15.5965 39.1837 15.5965C39.1837 15.5965 39.1837 15.5965 39.1837 15.5965C39.1837 15.5965 39.1837 15.5965 39.1837 15.5965C39.1837 15.5965 39.1837 15.5965 39.1837 15.5965C39.1837 15.5965 39.1837 15.5965 39.1837 15.5965C39.1837 15.5965 39.1837 15.5965 39.1837 15.5965C39.1837 15.5965 39.1837 15.5965 39.1837 15.5965C39.1837 15.5965 39.1837 15.5965 39.1837 15.5965C39.1837 15.5965 39.1837 15.5965 39.1837 15.5965C39.1837 15.5965 39.1837 15.5965 39.1837 15.5965C39.1837 15.5965 39.1837 15.5965 39.1837 15.5965C39.1837 15.5965 39.1837 15.5965 39.1837 15.5965C39.1837 15.5965 39.1837 15.5965 39.1837 15.5965C39.1837 15.5965 39.1837 15.5965 39.1837 15.5965C39.1837 15.5965 39.1837 15.5965 39.1837 15.5965C39.1837 15.5965 39.1837 15.5965 39.1837 15.5965C39.1837 15.5965 39.1837 15.5965 39.1837 15.5965C39.1837 15.5965 39.1837 15.5965 39.1837 15.5965C39.1837 15.5965 39.1837 15.5965 39.1837 15.5965C39.1837 15.5965 39.1837 15.5965 39.1837 15.5965C39.1837 15.5965 39.1837 15.5965 39.1837 15.5965C39.1837 15.5965 39.1837 15.5965 39.1837 15.5965C39.1837 15.5965 39.1837 15.5965 39.1837 15.5965C39.1837 15.5965 39.1837 15.5965 39.1837 15.5965C39.1837 15.5965 39.1837 15.5965 39.1837 15.5965C39.1837 15.5965 39.1837 15.5965 39.1837 15.5965C39.1837 15.5965 39.1837 15.5965 39.1837 15.5965C39.1837 15.5965 39.1837 15.5965 39.1837 15.5965C39.1837 15.5965 39.1837 15.5965 39.1837 15.5965C39.1837 15.5965 39.1837 15.5965 39.1837 15.5965C39.1837 15.5965 39.1837 15.5965 39.1837 15.5965C39.1837 15.5965 39.1837 15.5965 39.1837 15.5965C39.1837 15.5965 39.1837 15.5965 39.1837 15.5965C39.1837 15.5965 39.1837 15.5965 39.1837 15.5965C39.1837 15.5965 39.1837 15.5965 39.1837 15.5965C39.1837 15.5965 39.1837 15.5965 39.1837 15.5965C39.1837 15.5965 39.1837 15.5965 39.1837 15.5965C39.1837 15.5965 39.1837 15.5965 39.1837 15.5965C39.1837 15.5965 39.1837 15.5965 39.1837 15.5965C39.1837 15.5965 39.1837 15.5965 39.1837 15.5965C39.1837 15.5965 39.1837 15.5965 39.1837 15.5965C39.1837 15.5965 39.1837 15.5965 39.1837 15.5965C39.1837 15.5965 39.1837 15.5965 39.1837 15.5965C39.1837 15.5965 39.1837 15.5965 39.1837 15.5965C39.1837 15.5965 39.1837 15.5965 39.1837 15.5965C39.1837 15.5965 39.1837 15.5965 39.1837 15.5965C39.1837 15.5965 39.1837 15.5965 39.1837 15.5965C39.1837 15.5965 39.1837 15.5965 39.1837 15.5965C39.1837 15.5965 39.1837 15.5965 39.1837 15.5965C39.1837 15.5965 39.1837 15.5965 39.1837 15.5965C39.1837 15.5965 39.1837 15.5965 39.1837 15.5965C39.1837 15.5965 39.1837 15.5965 39.1837 15.5965C39.1837 15.5965 39.1837 15.5965 39.1837 15.5965C39.1837 15.5965 39.1837 15.5965 39.1837 15.5965C39.1837 15.5965 39.1837 15.5965 39.1837 15.5965C39.1837 15.5965 39.1837 15.5965 39.1837 15.5965C39.1837 15.5965 39.1837 15.5965 39.1837 15.5965C39.1837 15.5965 39.1837 15.5965 39.1837 15.5965C39.1837 15.5965 39.1838 15.5965 39.1838 15.5965V15.3965ZM39.1837 15.3965L37.5484 15.3967L37.5485 15.5967L39.1838 15.5965L39.1837 15.3965ZM37.5484 15.3967C37.5781 15.3967 37.5954 15.4135 37.6005 15.42C37.6056 15.4262 37.6066 15.4306 37.607 15.4326L37.4112 15.4733C37.416 15.4963 37.4264 15.5226 37.4448 15.5455C37.4634 15.5685 37.4981 15.5967 37.5484 15.5967V15.3967ZM37.607 15.4325C37.154 13.2662 36.1384 11.2245 34.6699 9.52748L34.5187 9.65835C35.9652 11.33 36.9653 13.3409 37.4113 15.4734L37.607 15.4325ZM34.6699 9.52748C33.2506 7.88732 31.433 6.59768 29.4064 5.78767L29.3322 5.97338C31.3295 6.77166 33.1205 8.04262 34.5187 9.65835L34.6699 9.52748ZM29.4665 5.85692C29.138 4.505 28.4429 3.10545 27.069 2.05296L26.9474 2.21172C28.2762 3.22973 28.9515 4.58456 29.2721 5.90414L29.4665 5.85692ZM27.069 2.05296C25.7412 1.0357 24.404 0.83927 24.3408 0.830402L24.313 1.02846C24.3605 1.03513 25.6587 1.22444 26.9474 2.21172L27.069 2.05296ZM24.3406 0.830384C24.1304 0.80116 23.9164 0.862121 23.7549 0.998714L23.884 1.15143C24.0016 1.05204 24.1584 1.00697 24.3131 1.02848L24.3406 0.830384ZM23.7549 0.998714C23.5933 1.13538 23.4998 1.33422 23.4998 1.54422H23.6998C23.6998 1.39407 23.7666 1.25074 23.884 1.15143L23.7549 0.998714ZM23.4998 1.54422V4.89776H23.6998V1.54422H23.4998ZM23.5998 4.79776H21.2883V4.99776H23.5998V4.79776ZM21.3841 4.86912C20.8002 2.91552 18.9496 1.48565 16.7634 1.48565V1.68565C18.8614 1.68565 20.6339 3.05769 21.1925 4.9264L21.3841 4.86912ZM16.7634 1.48565C14.5308 1.48565 12.6471 2.9765 12.1061 4.99396L12.2993 5.04576C12.8167 3.11631 14.6207 1.68565 16.7634 1.68565V1.48565ZM12.1896 4.92073C9.01744 5.34201 6.09861 6.84047 3.93262 9.17063L4.0791 9.3068C6.21311 7.01105 9.08928 5.53423 12.2159 5.11899L12.1896 4.92073ZM3.93261 9.17064C1.65484 11.6213 0.4 14.7942 0.4 18.1048H0.6C0.6 14.8453 1.83531 11.7209 4.07911 9.3068L3.93261 9.17064ZM0.4 18.1048C0.4 25.5106 4.34158 31.5315 5.5486 33.1995L5.71062 33.0823C4.51077 31.4242 0.6 25.4461 0.6 18.1048H0.4ZM5.54859 33.1995C5.93959 33.74 6.5789 34.0615 7.2582 34.0615V33.8615C6.64141 33.8615 6.06306 33.5694 5.71063 33.0823L5.54859 33.1995ZM7.2582 34.0615H9.96922V33.8615H7.2582V34.0615ZM9.96922 34.0615C11.1225 34.0615 12.065 33.1462 12.065 32.0156H11.865C11.865 33.031 11.0169 33.8615 9.96922 33.8615V34.0615ZM12.065 32.0156V31.156H11.865V32.0156H12.065ZM11.9502 31.2549C12.641 31.3586 13.3429 31.4118 14.0457 31.4118V31.2118C13.353 31.2118 12.661 31.1594 11.9798 31.0571L11.9502 31.2549ZM14.0457 31.4118H20.2028V31.2118H14.0457V31.4118ZM20.1028 31.3118V32.0156H20.3028V31.3118H20.1028ZM20.1028 32.0156C20.1028 33.1462 21.0453 34.0615 22.1986 34.0615V33.8615C21.151 33.8615 20.3028 33.031 20.3028 32.0156H20.1028ZM22.1986 34.0615H25.1765V33.8615H22.1986V34.0615ZM25.1765 34.0615C26.1566 34.0615 27.0193 33.3835 27.2256 32.4448L27.0302 32.4019C26.8448 33.2456 26.066 33.8615 25.1765 33.8615V34.0615ZM27.2256 32.4448L27.5524 30.9577L27.3571 30.9147L27.0302 32.4019L27.2256 32.4448ZM27.4779 31.0335C31.6945 30.0323 35.0856 27.1479 36.7549 23.4036L36.5722 23.3222C34.9282 27.0097 31.5875 29.8521 27.4317 30.8389L27.4779 31.0335ZM36.6635 23.4629H39.1837V23.2629H36.6635V23.4629ZM39.1837 23.4629C39.9624 23.4629 40.6 22.8448 40.6 22.0795H40.4C40.4 22.7296 39.8567 23.2629 39.1837 23.2629V23.4629ZM40.6 22.0795V16.78H40.4V22.0795H40.6ZM40.6 16.78C40.6 16.4097 40.452 16.0617 40.1842 15.8007L40.0446 15.9439C40.2743 16.1678 40.4 16.4644 40.4 16.78H40.6ZM16.7633 2.92779C18.607 2.92779 20.1027 4.38978 20.1027 6.18133H20.3027C20.3027 4.27458 18.7127 2.72779 16.7633 2.72779V2.92779ZM20.1027 6.18133C20.1027 6.63956 20.0021 7.09118 19.8123 7.50594L19.9942 7.58915C20.1957 7.14881 20.3027 6.66885 20.3027 6.18133H20.1027ZM19.9033 7.44755H13.6232V7.64755H19.9033V7.44755ZM13.7141 7.50597C13.5244 7.09102 13.4237 6.63954 13.4237 6.18133H13.2237C13.2237 6.66887 13.3309 7.14866 13.5323 7.58913L13.7141 7.50597ZM13.4237 6.18133C13.4237 4.38971 14.9195 2.92779 16.7633 2.92779V2.72779C14.8139 2.72779 13.2237 4.2745 13.2237 6.18133H13.4237ZM39.1261 22.0793C39.1261 22.0447 39.1542 22.0208 39.1836 22.0208V22.2208C39.2601 22.2208 39.3261 22.1596 39.3261 22.0793H39.1261ZM39.1836 22.0208H37.1423V22.2208H39.1836V22.0208ZM37.2374 22.1519C37.587 21.0846 37.8022 19.9621 37.8638 18.8047L37.664 18.794C37.6034 19.9336 37.3916 21.0387 37.0473 22.0896L37.2374 22.1519ZM37.8638 18.8047C37.8851 18.4046 37.57 18.0676 37.1658 18.0471L37.1557 18.2469C37.4542 18.262 37.6793 18.5092 37.664 18.794L37.8638 18.8047ZM37.1657 18.0471C36.7619 18.0272 36.4131 18.3297 36.3919 18.7298L36.5916 18.7404C36.6067 18.4553 36.857 18.2321 37.1558 18.2469L37.1657 18.0471ZM36.3919 18.7298C36.1244 23.7581 32.6138 28.0538 27.7269 29.4746L27.7828 29.6667C32.7481 28.223 36.3194 23.8569 36.5916 18.7404L36.3919 18.7298ZM27.8525 29.5921L28.7424 25.5432L28.5471 25.5003L27.6572 29.5492L27.8525 29.5921ZM28.7424 25.5432C28.8286 25.1513 28.5721 24.7693 28.1758 24.6865L28.135 24.8823C28.4267 24.9432 28.6084 25.2214 28.5471 25.5003L28.7424 25.5432ZM28.1759 24.6865C27.7805 24.6036 27.3874 24.8491 27.3015 25.2401L27.4968 25.283C27.5583 25.0032 27.8428 24.821 28.1349 24.8823L28.1759 24.6865ZM27.3015 25.2401L25.7846 32.1416L25.9799 32.1845L27.4968 25.283L27.3015 25.2401ZM25.7846 32.1416C25.7242 32.4164 25.4692 32.6194 25.1765 32.6194V32.8194C25.5598 32.8194 25.8986 32.5543 25.9799 32.1845L25.7846 32.1416ZM25.1765 32.6194H22.1984V32.8194H25.1765V32.6194ZM22.1984 32.6194C21.8532 32.6194 21.5766 32.346 21.5766 32.0156H21.3766C21.3766 32.4612 21.7476 32.8194 22.1984 32.8194V32.6194ZM21.5766 32.0156V29.3658H21.3766V32.0156H21.5766ZM21.5766 29.3658C21.5766 28.9652 21.2442 28.6448 20.8396 28.6448V28.8448C21.1386 28.8448 21.3766 29.0804 21.3766 29.3658H21.5766ZM20.8396 28.6448C20.435 28.6448 20.1027 28.9652 20.1027 29.3658H20.3027C20.3027 29.0804 20.5406 28.8448 20.8396 28.8448V28.6448ZM20.1027 29.3658V30.0697H20.3027V29.3658H20.1027ZM20.2027 29.9697H14.0455V30.1697H20.2027V29.9697ZM14.0455 29.9697C13.3523 29.9697 12.6602 29.9116 11.9812 29.7987L11.9484 29.996C12.6381 30.1106 13.3412 30.1697 14.0455 30.1697V29.9697ZM12.0648 29.8974V25.3914H11.8648V29.8974H12.0648ZM12.0648 25.3914C12.0648 24.9908 11.7325 24.6704 11.3279 24.6704V24.8704C11.6269 24.8704 11.8648 25.106 11.8648 25.3914H12.0648ZM11.3279 24.6704C10.9233 24.6704 10.5909 24.9908 10.5909 25.3914H10.7909C10.7909 25.106 11.0289 24.8704 11.3279 24.8704V24.6704ZM10.5909 25.3914V32.0156H10.7909V25.3914H10.5909ZM10.5909 32.0156C10.5909 32.3461 10.3143 32.6195 9.96906 32.6195V32.8195C10.4199 32.8195 10.7909 32.4613 10.7909 32.0156H10.5909ZM9.96906 32.6195H7.2582V32.8195H9.96906V32.6195ZM7.2582 32.6195C7.05098 32.6195 6.86741 32.5266 6.75159 32.3664L6.58951 32.4836C6.74431 32.6977 6.98918 32.8195 7.2582 32.8195V32.6195ZM6.75157 32.3664C5.6064 30.7836 1.87391 25.0804 1.87391 18.1047H1.67391C1.67391 25.145 5.43735 30.8911 6.58953 32.4836L6.75157 32.3664ZM1.87391 18.1047C1.87391 15.1541 2.99203 12.3259 5.02301 10.1409L4.87652 10.0047C2.81156 12.2263 1.67391 15.103 1.67391 18.1047H1.87391ZM5.02301 10.1409C6.88185 8.14093 9.36222 6.82771 12.0676 6.3964L12.0361 6.19889C9.28715 6.63716 6.76612 7.97167 4.87652 10.0047L5.02301 10.1409ZM11.9519 6.30023C11.9632 6.7353 12.0363 7.16541 12.1676 7.57773L12.3582 7.51706C12.2326 7.12257 12.1626 6.71114 12.1518 6.29506L11.9519 6.30023ZM12.2629 7.4474H12.0074V7.6474H12.2629V7.4474ZM12.0074 7.4474C11.6028 7.4474 11.2705 7.76782 11.2705 8.16843H11.4705C11.4705 7.88302 11.7085 7.6474 12.0074 7.6474V7.4474ZM11.2705 8.16843C11.2705 8.56903 11.6028 8.88945 12.0074 8.88945V8.68945C11.7085 8.68945 11.4705 8.45383 11.4705 8.16843H11.2705ZM12.0074 8.88945H21.5191V8.68945H12.0074V8.88945ZM21.5191 8.88945C21.9238 8.88945 22.2561 8.56903 22.2561 8.16843H22.0561C22.0561 8.45383 21.8181 8.68945 21.5191 8.68945V8.88945ZM22.2561 8.16843C22.2561 7.76782 21.9238 7.4474 21.5191 7.4474V7.6474C21.8181 7.6474 22.0561 7.88302 22.0561 8.16843H22.2561ZM21.5191 7.4474H21.2636V7.6474H21.5191V7.4474ZM21.3589 7.57775C21.5022 7.12787 21.5766 6.65687 21.5766 6.18118H21.3766C21.3766 6.636 21.3055 7.08653 21.1683 7.51704L21.3589 7.57775ZM21.5766 6.18118C21.5766 6.17217 21.5763 6.16361 21.5761 6.15674C21.5758 6.14936 21.5756 6.14397 21.5755 6.13863L21.3756 6.14085C21.3756 6.14937 21.376 6.15773 21.3762 6.16412C21.3765 6.17102 21.3766 6.17625 21.3766 6.18118H21.5766ZM21.4755 6.23974H23.5998V6.03974H21.4755V6.23974ZM23.4998 6.13974V7.50596H23.6998V6.13974H23.4998ZM23.4998 7.50596C23.4998 7.90656 23.8321 8.22699 24.2367 8.22699V8.02699C23.9377 8.02699 23.6998 7.79136 23.6998 7.50596H23.4998ZM24.2367 8.22699C24.6413 8.22699 24.9737 7.90656 24.9737 7.50596H24.7737C24.7737 7.79136 24.5357 8.02699 24.2367 8.02699V8.22699ZM24.9737 7.50596V2.35964H24.7737V7.50596H24.9737ZM24.8391 2.45345C25.4318 2.67215 26.2849 3.11717 26.9898 3.99635C27.6936 4.87414 28.2556 6.1922 28.2556 8.1685H28.4556C28.4556 6.15149 27.8809 4.78808 27.1459 3.87124C26.4119 2.95578 25.5241 2.49303 24.9083 2.26582L24.8391 2.45345ZM28.2556 8.1685C28.2556 8.5691 28.588 8.88953 28.9926 8.88953V8.68953C28.6936 8.68953 28.4556 8.4539 28.4556 8.1685H28.2556ZM28.9926 8.88953C29.3972 8.88953 29.7295 8.5691 29.7295 8.1685H29.5295C29.5295 8.4539 29.2915 8.68953 28.9926 8.68953V8.88953ZM29.7295 8.1685C29.7295 7.90295 29.7197 7.62256 29.6971 7.33275L29.4977 7.34827C29.5199 7.63265 29.5295 7.90786 29.5295 8.1685H29.7295ZM29.5545 7.43084C31.0787 8.15472 32.4459 9.18926 33.5451 10.4595L33.6963 10.3286C32.5788 9.03711 31.1891 7.98576 29.6403 7.25018L29.5545 7.43084ZM33.5451 10.4595C34.8544 11.9726 35.7596 13.7923 36.1631 15.7216L36.3588 15.6807C35.9483 13.7176 35.0276 11.867 33.6963 10.3286L33.5451 10.4595ZM36.1631 15.7216C36.2986 16.37 36.8816 16.8389 37.5487 16.8388L37.5487 16.6388C36.9748 16.6389 36.4747 16.235 36.3588 15.6807L36.1631 15.7216ZM37.5487 16.8388L39.1838 16.8387L39.1837 16.6387L37.5487 16.6388L37.5487 16.8388ZM39.1838 16.8387C39.1844 16.8387 39.1821 16.8387 39.1793 16.8384C39.1764 16.8382 39.1728 16.8376 39.1688 16.8365C39.1601 16.8341 39.1511 16.8294 39.144 16.8224L39.2836 16.6792C39.2424 16.6391 39.1956 16.6387 39.1838 16.6387V16.8387ZM39.1439 16.8224C39.1368 16.8154 39.1316 16.8063 39.1287 16.7967C39.1274 16.7922 39.1268 16.7882 39.1264 16.785C39.1261 16.7819 39.1262 16.7794 39.1262 16.78H39.3262C39.3262 16.767 39.3253 16.7199 39.2836 16.6792L39.1439 16.8224ZM39.1262 16.78L39.1261 22.0793L39.3261 22.0793L39.3262 16.78L39.1262 16.78ZM33.7592 15.865C33.3481 14.7897 32.2627 14.0718 31.0621 14.0718V14.2718C32.1853 14.2718 33.1928 14.9435 33.5724 15.9364L33.7592 15.865ZM31.0621 14.0718C29.8614 14.0718 28.7762 14.7896 28.3649 15.865L28.5517 15.9364C28.9315 14.9434 29.9389 14.2718 31.0621 14.2718V14.0718ZM28.3649 15.865C28.2214 16.2403 28.418 16.6552 28.7984 16.7935L28.8667 16.6055C28.5879 16.5042 28.4494 16.2039 28.5517 15.9364L28.3649 15.865ZM28.7984 16.7935C29.1777 16.9315 29.6024 16.7443 29.7453 16.3703L29.5585 16.2989C29.4558 16.5676 29.1468 16.7074 28.8668 16.6055L28.7984 16.7935ZM29.7453 16.3703C29.9397 15.8619 30.4667 15.5138 31.062 15.5138V15.3138C30.3918 15.3138 29.7853 15.7058 29.5585 16.2989L29.7453 16.3703ZM31.062 15.5138C31.6574 15.5138 32.1844 15.8619 32.3788 16.3703L32.5656 16.2989C32.3389 15.7058 31.7323 15.3138 31.062 15.3138V15.5138ZM32.3788 16.3703C32.49 16.6613 32.7719 16.8388 33.0691 16.8388V16.6388C32.8495 16.6388 32.6454 16.5077 32.5656 16.2989L32.3788 16.3703ZM33.0691 16.8388C33.1545 16.8388 33.2412 16.8242 33.3257 16.7935L33.2573 16.6055C33.1952 16.6281 33.1316 16.6388 33.0691 16.6388V16.8388ZM33.3256 16.7935C33.706 16.6552 33.9027 16.2402 33.7592 15.865L33.5724 15.9364C33.6746 16.2038 33.5362 16.5042 33.2573 16.6055L33.3256 16.7935ZM17.5002 17.6314V14.4577H17.3002V17.6314H17.5002ZM17.3884 14.5571C18.0022 14.6298 18.5189 14.8044 18.8791 15.0195C19.2468 15.2391 19.4233 15.4824 19.4233 15.683H19.6233C19.6233 15.3708 19.3631 15.0756 18.9816 14.8478C18.5926 14.6155 18.0477 14.4338 17.412 14.3584L17.3884 14.5571ZM19.4233 15.683C19.4233 16.0836 19.7556 16.404 20.1603 16.404V16.204C19.8613 16.204 19.6233 15.9684 19.6233 15.683H19.4233ZM20.1603 16.404C20.5649 16.404 20.8972 16.0836 20.8972 15.683H20.6972C20.6972 15.9684 20.4592 16.204 20.1603 16.204V16.404ZM20.8972 15.683C20.8972 15.0066 20.5111 14.407 19.8881 13.9575C19.2652 13.5081 18.3979 13.2021 17.4096 13.1086L17.3908 13.3077C18.3515 13.3986 19.1828 13.6953 19.7711 14.1197C20.3594 14.5441 20.6972 15.0897 20.6972 15.683H20.8972ZM17.5002 13.2081V13.1368H17.3002V13.2081H17.5002ZM17.5002 13.1368C17.5002 12.7362 17.1679 12.4157 16.7632 12.4157V12.6157C17.0622 12.6157 17.3002 12.8514 17.3002 13.1368H17.5002ZM16.7632 12.4157C16.3586 12.4157 16.0263 12.7362 16.0263 13.1368H16.2263C16.2263 12.8514 16.4643 12.6157 16.7632 12.6157V12.4157ZM16.0263 13.1368V13.2081H16.2263V13.1368H16.0263ZM16.1169 13.1086C15.1286 13.2021 14.2613 13.5081 13.6384 13.9575C13.0154 14.407 12.6292 15.0066 12.6292 15.683H12.8292C12.8292 15.0897 13.1671 14.5441 13.7554 14.1197C14.3437 13.6953 15.1749 13.3986 16.1357 13.3077L16.1169 13.1086ZM12.6292 15.683C12.6292 16.6313 13.1129 17.2761 13.7868 17.7332C14.4561 18.1871 15.3199 18.4611 16.0998 18.6749L16.1527 18.4821C15.3732 18.2683 14.5384 18.0012 13.8991 17.5676C13.2644 17.1372 12.8292 16.5481 12.8292 15.683H12.6292ZM16.0263 18.5785V21.7521H16.2263V18.5785H16.0263ZM16.138 21.6528C15.5243 21.5801 15.0076 21.4055 14.6474 21.1904C14.2797 20.9708 14.1032 20.7275 14.1032 20.5269H13.9032C13.9032 20.839 14.1634 21.1343 14.5449 21.3621C14.9339 21.5944 15.4787 21.7761 16.1145 21.8514L16.138 21.6528ZM14.1032 20.5269C14.1032 20.1263 13.7708 19.8059 13.3662 19.8059V20.0059C13.6652 20.0059 13.9032 20.2415 13.9032 20.5269H14.1032ZM13.3662 19.8059C12.9616 19.8059 12.6292 20.1263 12.6292 20.5269H12.8292C12.8292 20.2415 13.0672 20.0059 13.3662 20.0059V19.8059ZM12.6292 20.5269C12.6292 21.2033 13.0154 21.8029 13.6384 22.2524C14.2613 22.7018 15.1286 23.0078 16.1169 23.1013L16.1357 22.9022C15.1749 22.8113 14.3437 22.5146 13.7554 22.0902C13.1671 21.6657 12.8292 21.1202 12.8292 20.5269H12.6292ZM16.0263 23.0017V23.0731H16.2263V23.0017H16.0263ZM16.0263 23.0731C16.0263 23.4737 16.3586 23.7941 16.7632 23.7941V23.5941C16.4643 23.5941 16.2263 23.3585 16.2263 23.0731H16.0263ZM16.7632 23.7941C17.1679 23.7941 17.5002 23.4737 17.5002 23.0731H17.3002C17.3002 23.3585 17.0622 23.5941 16.7632 23.5941V23.7941ZM17.5002 23.0731V23.0017H17.3002V23.0731H17.5002ZM17.4096 23.1013C18.3979 23.0078 19.2652 22.7018 19.8881 22.2524C20.5111 21.8029 20.8972 21.2033 20.8972 20.5269H20.6972C20.6972 21.1202 20.3594 21.6657 19.7711 22.0902C19.1828 22.5146 18.3515 22.8113 17.3908 22.9022L17.4096 23.1013ZM20.8972 20.5269C20.8972 19.5785 20.4136 18.9337 19.7396 18.4767C19.0703 18.0228 18.2066 17.7488 17.4266 17.5349L17.3737 17.7278C18.1533 17.9416 18.9881 18.2086 19.6274 18.6422C20.2621 19.0726 20.6972 19.6617 20.6972 20.5269H20.8972ZM16.1555 17.1826C15.3731 16.9433 14.8567 16.7184 14.5369 16.4758C14.2237 16.2383 14.1032 15.9874 14.1032 15.683H13.9032C13.9032 16.058 14.0597 16.3649 14.416 16.6351C14.7655 16.9003 15.3107 17.1334 16.097 17.3739L16.1555 17.1826ZM14.1032 15.683C14.1032 15.4824 14.2797 15.2391 14.6474 15.0195C15.0076 14.8044 15.5243 14.6298 16.138 14.5571L16.1145 14.3584C15.4787 14.4338 14.9339 14.6155 14.5449 14.8478C14.1634 15.0756 13.9032 15.3708 13.9032 15.683H14.1032ZM16.0263 14.4577V17.2782H16.2263V14.4577H16.0263ZM17.5002 21.7522V18.9317H17.3002V21.7522H17.5002ZM17.3709 19.0273C18.1534 19.2666 18.6698 19.4915 18.9896 19.7341C19.3027 19.9717 19.4233 20.2225 19.4233 20.527H19.6233C19.6233 20.152 19.4667 19.8451 19.1105 19.5748C18.7609 19.3096 18.2157 19.0765 17.4294 18.8361L17.3709 19.0273ZM19.4233 20.527C19.4233 20.7275 19.2467 20.9709 18.879 21.1905C18.5188 21.4056 18.0021 21.5802 17.3884 21.6529L17.412 21.8515C18.0477 21.7762 18.5926 21.5945 18.9816 21.3622C19.363 21.1344 19.6233 20.8391 19.6233 20.527H19.4233Z" fill="white" mask="url(#path-1-outside-1)"/>
</g>
</svg>
